<mxfile host="app.diagrams.net" modified="2024-01-16T07:30:18.679Z" agent="Mozilla/5.0 (Windows NT 10.0; Win64; x64; rv:122.0) Gecko/20100101 Firefox/122.0" etag="Q9Y2mtKAK-T_JBygfbKI" version="22.1.18" type="device">
  <diagram name="Sayfa -1" id="nu_xsq3waBW0ze4engWk">
    <mxGraphModel dx="733" dy="368" grid="1" gridSize="10" guides="1" tooltips="1" connect="1" arrows="1" fold="1" page="1" pageScale="1" pageWidth="827" pageHeight="1169" math="0" shadow="0">
      <root>
        <mxCell id="0" />
        <mxCell id="1" parent="0" />
        <mxCell id="pazgyhZPyo7JdbB8Kf8L-10" style="edgeStyle=orthogonalEdgeStyle;rounded=0;orthogonalLoop=1;jettySize=auto;html=1;exitX=1;exitY=0.5;exitDx=0;exitDy=0;entryX=0.25;entryY=0;entryDx=0;entryDy=0;" edge="1" parent="1" source="pazgyhZPyo7JdbB8Kf8L-1" target="pazgyhZPyo7JdbB8Kf8L-7">
          <mxGeometry relative="1" as="geometry">
            <Array as="points">
              <mxPoint x="518" y="95" />
            </Array>
          </mxGeometry>
        </mxCell>
        <mxCell id="pazgyhZPyo7JdbB8Kf8L-1" value="&lt;font face=&quot;Lucida Console&quot;&gt;server.toml&lt;/font&gt;" style="rounded=0;whiteSpace=wrap;html=1;" vertex="1" parent="1">
          <mxGeometry x="240" y="80" width="200" height="30" as="geometry" />
        </mxCell>
        <mxCell id="pazgyhZPyo7JdbB8Kf8L-5" style="edgeStyle=orthogonalEdgeStyle;rounded=0;orthogonalLoop=1;jettySize=auto;html=1;exitX=0.099;exitY=1.009;exitDx=0;exitDy=0;entryX=0;entryY=0.5;entryDx=0;entryDy=0;exitPerimeter=0;" edge="1" parent="1" source="pazgyhZPyo7JdbB8Kf8L-2" target="pazgyhZPyo7JdbB8Kf8L-3">
          <mxGeometry relative="1" as="geometry">
            <Array as="points">
              <mxPoint x="260" y="175" />
            </Array>
          </mxGeometry>
        </mxCell>
        <mxCell id="pazgyhZPyo7JdbB8Kf8L-33" style="edgeStyle=orthogonalEdgeStyle;rounded=0;orthogonalLoop=1;jettySize=auto;html=1;exitX=1;exitY=0.5;exitDx=0;exitDy=0;entryX=0;entryY=0.5;entryDx=0;entryDy=0;fillColor=#60a917;strokeColor=#2D7600;" edge="1" parent="1" source="pazgyhZPyo7JdbB8Kf8L-2" target="pazgyhZPyo7JdbB8Kf8L-7">
          <mxGeometry relative="1" as="geometry" />
        </mxCell>
        <mxCell id="pazgyhZPyo7JdbB8Kf8L-2" value="&lt;font face=&quot;Lucida Console&quot;&gt;config/&lt;/font&gt;" style="rounded=0;whiteSpace=wrap;html=1;" vertex="1" parent="1">
          <mxGeometry x="240" y="120" width="200" height="30" as="geometry" />
        </mxCell>
        <mxCell id="pazgyhZPyo7JdbB8Kf8L-3" value="&amp;nbsp;&amp;nbsp;&amp;nbsp;&amp;nbsp;&amp;nbsp;&amp;nbsp;&amp;nbsp;&amp;nbsp; &lt;font face=&quot;Lucida Console&quot;&gt;server.properties&lt;/font&gt;" style="rounded=0;whiteSpace=wrap;html=1;" vertex="1" parent="1">
          <mxGeometry x="280" y="160" width="160" height="30" as="geometry" />
        </mxCell>
        <mxCell id="pazgyhZPyo7JdbB8Kf8L-6" value="&lt;font face=&quot;Lucida Console&quot;&gt;Files&lt;/font&gt;" style="rounded=1;whiteSpace=wrap;html=1;fillColor=#e1d5e7;strokeColor=#9673a6;" vertex="1" parent="1">
          <mxGeometry x="200" y="50" width="280" height="20" as="geometry" />
        </mxCell>
        <mxCell id="pazgyhZPyo7JdbB8Kf8L-11" style="edgeStyle=orthogonalEdgeStyle;rounded=0;orthogonalLoop=1;jettySize=auto;html=1;exitX=0.5;exitY=0;exitDx=0;exitDy=0;entryX=0.5;entryY=1;entryDx=0;entryDy=0;" edge="1" parent="1" source="pazgyhZPyo7JdbB8Kf8L-7" target="pazgyhZPyo7JdbB8Kf8L-9">
          <mxGeometry relative="1" as="geometry" />
        </mxCell>
        <mxCell id="pazgyhZPyo7JdbB8Kf8L-23" style="edgeStyle=orthogonalEdgeStyle;rounded=0;orthogonalLoop=1;jettySize=auto;html=1;exitX=0.25;exitY=1;exitDx=0;exitDy=0;entryX=1;entryY=0.5;entryDx=0;entryDy=0;" edge="1" parent="1" source="pazgyhZPyo7JdbB8Kf8L-7" target="pazgyhZPyo7JdbB8Kf8L-14">
          <mxGeometry relative="1" as="geometry">
            <Array as="points">
              <mxPoint x="500" y="144" />
              <mxPoint x="500" y="215" />
            </Array>
          </mxGeometry>
        </mxCell>
        <mxCell id="pazgyhZPyo7JdbB8Kf8L-24" value="mkdir" style="edgeLabel;html=1;align=center;verticalAlign=middle;resizable=0;points=[];fontSize=12;fontFamily=Lucida Console;" vertex="1" connectable="0" parent="pazgyhZPyo7JdbB8Kf8L-23">
          <mxGeometry x="0.29" relative="1" as="geometry">
            <mxPoint x="-14" as="offset" />
          </mxGeometry>
        </mxCell>
        <mxCell id="pazgyhZPyo7JdbB8Kf8L-25" style="edgeStyle=orthogonalEdgeStyle;rounded=0;orthogonalLoop=1;jettySize=auto;html=1;exitX=0.5;exitY=1;exitDx=0;exitDy=0;entryX=1;entryY=0.5;entryDx=0;entryDy=0;" edge="1" parent="1" source="pazgyhZPyo7JdbB8Kf8L-7" target="pazgyhZPyo7JdbB8Kf8L-15">
          <mxGeometry relative="1" as="geometry" />
        </mxCell>
        <mxCell id="pazgyhZPyo7JdbB8Kf8L-27" value="&lt;div&gt;&lt;font face=&quot;Lucida Console&quot;&gt;download&lt;/font&gt;&lt;/div&gt;" style="edgeLabel;html=1;align=center;verticalAlign=middle;resizable=0;points=[];" vertex="1" connectable="0" parent="pazgyhZPyo7JdbB8Kf8L-25">
          <mxGeometry x="0.507" relative="1" as="geometry">
            <mxPoint as="offset" />
          </mxGeometry>
        </mxCell>
        <mxCell id="pazgyhZPyo7JdbB8Kf8L-28" style="edgeStyle=orthogonalEdgeStyle;rounded=0;orthogonalLoop=1;jettySize=auto;html=1;exitX=0.5;exitY=1;exitDx=0;exitDy=0;entryX=1;entryY=0.5;entryDx=0;entryDy=0;" edge="1" parent="1" source="pazgyhZPyo7JdbB8Kf8L-7" target="pazgyhZPyo7JdbB8Kf8L-18">
          <mxGeometry relative="1" as="geometry" />
        </mxCell>
        <mxCell id="pazgyhZPyo7JdbB8Kf8L-31" style="edgeStyle=orthogonalEdgeStyle;rounded=0;orthogonalLoop=1;jettySize=auto;html=1;exitX=0.25;exitY=1;exitDx=0;exitDy=0;entryX=1;entryY=0.5;entryDx=0;entryDy=0;fillColor=#60a917;strokeColor=#2D7600;" edge="1" parent="1" source="pazgyhZPyo7JdbB8Kf8L-7" target="pazgyhZPyo7JdbB8Kf8L-16">
          <mxGeometry relative="1" as="geometry">
            <Array as="points">
              <mxPoint x="520" y="144" />
              <mxPoint x="520" y="255" />
            </Array>
          </mxGeometry>
        </mxCell>
        <mxCell id="pazgyhZPyo7JdbB8Kf8L-32" value="&lt;font style=&quot;font-size: 11px;&quot;&gt;bootstrap&lt;/font&gt;" style="edgeLabel;html=1;align=center;verticalAlign=middle;resizable=0;points=[];fontSize=11;fontFamily=Lucida Console;fontColor=#009900;" vertex="1" connectable="0" parent="pazgyhZPyo7JdbB8Kf8L-31">
          <mxGeometry x="0.7224" y="-2" relative="1" as="geometry">
            <mxPoint x="17" y="2" as="offset" />
          </mxGeometry>
        </mxCell>
        <mxCell id="pazgyhZPyo7JdbB8Kf8L-7" value="mcman build" style="rounded=1;whiteSpace=wrap;html=1;fontFamily=Lucida Console;fillColor=#e1d5e7;strokeColor=#9673a6;" vertex="1" parent="1">
          <mxGeometry x="495" y="125" width="90" height="20" as="geometry" />
        </mxCell>
        <mxCell id="pazgyhZPyo7JdbB8Kf8L-9" value="Internet" style="shape=datastore;whiteSpace=wrap;html=1;fontFamily=Lucida Console;" vertex="1" parent="1">
          <mxGeometry x="510" y="35" width="60" height="50" as="geometry" />
        </mxCell>
        <mxCell id="pazgyhZPyo7JdbB8Kf8L-12" style="edgeStyle=orthogonalEdgeStyle;rounded=0;orthogonalLoop=1;jettySize=auto;html=1;exitX=0.618;exitY=1.003;exitDx=0;exitDy=0;exitPerimeter=0;entryX=0.577;entryY=0.015;entryDx=0;entryDy=0;entryPerimeter=0;" edge="1" parent="1" source="pazgyhZPyo7JdbB8Kf8L-9" target="pazgyhZPyo7JdbB8Kf8L-7">
          <mxGeometry relative="1" as="geometry">
            <mxPoint x="550" y="125" as="targetPoint" />
            <Array as="points">
              <mxPoint x="547" y="120" />
              <mxPoint x="547" y="120" />
            </Array>
          </mxGeometry>
        </mxCell>
        <mxCell id="pazgyhZPyo7JdbB8Kf8L-19" style="edgeStyle=orthogonalEdgeStyle;rounded=0;orthogonalLoop=1;jettySize=auto;html=1;exitX=0;exitY=1;exitDx=0;exitDy=0;entryX=0;entryY=0.5;entryDx=0;entryDy=0;" edge="1" parent="1" source="pazgyhZPyo7JdbB8Kf8L-14" target="pazgyhZPyo7JdbB8Kf8L-15">
          <mxGeometry relative="1" as="geometry">
            <Array as="points">
              <mxPoint x="260" y="230" />
              <mxPoint x="260" y="295" />
            </Array>
          </mxGeometry>
        </mxCell>
        <mxCell id="pazgyhZPyo7JdbB8Kf8L-20" style="edgeStyle=orthogonalEdgeStyle;rounded=0;orthogonalLoop=1;jettySize=auto;html=1;exitX=0;exitY=1;exitDx=0;exitDy=0;entryX=0;entryY=0.5;entryDx=0;entryDy=0;" edge="1" parent="1" source="pazgyhZPyo7JdbB8Kf8L-14" target="pazgyhZPyo7JdbB8Kf8L-16">
          <mxGeometry relative="1" as="geometry">
            <Array as="points">
              <mxPoint x="260" y="230" />
              <mxPoint x="260" y="255" />
            </Array>
          </mxGeometry>
        </mxCell>
        <mxCell id="pazgyhZPyo7JdbB8Kf8L-21" style="edgeStyle=orthogonalEdgeStyle;rounded=0;orthogonalLoop=1;jettySize=auto;html=1;exitX=0;exitY=1;exitDx=0;exitDy=0;entryX=0;entryY=0.5;entryDx=0;entryDy=0;" edge="1" parent="1" source="pazgyhZPyo7JdbB8Kf8L-14" target="pazgyhZPyo7JdbB8Kf8L-17">
          <mxGeometry relative="1" as="geometry">
            <Array as="points">
              <mxPoint x="260" y="230" />
              <mxPoint x="260" y="335" />
            </Array>
          </mxGeometry>
        </mxCell>
        <mxCell id="pazgyhZPyo7JdbB8Kf8L-14" value="&lt;font face=&quot;Lucida Console&quot;&gt;server/&lt;/font&gt;" style="rounded=0;whiteSpace=wrap;html=1;" vertex="1" parent="1">
          <mxGeometry x="240" y="200" width="200" height="30" as="geometry" />
        </mxCell>
        <mxCell id="pazgyhZPyo7JdbB8Kf8L-15" value="&amp;nbsp;&amp;nbsp;&amp;nbsp; &lt;font face=&quot;Lucida Console&quot;&gt;server-1.20.jar&lt;/font&gt;" style="rounded=0;whiteSpace=wrap;html=1;" vertex="1" parent="1">
          <mxGeometry x="280" y="280" width="160" height="30" as="geometry" />
        </mxCell>
        <mxCell id="pazgyhZPyo7JdbB8Kf8L-16" value="&lt;font face=&quot;Lucida Console&quot;&gt;&amp;nbsp;&amp;nbsp; server.properties&lt;/font&gt;" style="rounded=0;whiteSpace=wrap;html=1;" vertex="1" parent="1">
          <mxGeometry x="280" y="240" width="160" height="30" as="geometry" />
        </mxCell>
        <mxCell id="pazgyhZPyo7JdbB8Kf8L-22" style="edgeStyle=orthogonalEdgeStyle;rounded=0;orthogonalLoop=1;jettySize=auto;html=1;exitX=0;exitY=1;exitDx=0;exitDy=0;entryX=0;entryY=0.5;entryDx=0;entryDy=0;" edge="1" parent="1" source="pazgyhZPyo7JdbB8Kf8L-17" target="pazgyhZPyo7JdbB8Kf8L-18">
          <mxGeometry relative="1" as="geometry">
            <Array as="points">
              <mxPoint x="300" y="350" />
              <mxPoint x="300" y="375" />
            </Array>
          </mxGeometry>
        </mxCell>
        <mxCell id="pazgyhZPyo7JdbB8Kf8L-17" value="plugins/" style="rounded=0;whiteSpace=wrap;html=1;" vertex="1" parent="1">
          <mxGeometry x="280" y="320" width="160" height="30" as="geometry" />
        </mxCell>
        <mxCell id="pazgyhZPyo7JdbB8Kf8L-18" value="&amp;nbsp;&amp;nbsp;&amp;nbsp;&amp;nbsp;&amp;nbsp;&amp;nbsp; LuckPerms.jar" style="rounded=0;whiteSpace=wrap;html=1;" vertex="1" parent="1">
          <mxGeometry x="320" y="360" width="120" height="30" as="geometry" />
        </mxCell>
        <mxCell id="pazgyhZPyo7JdbB8Kf8L-29" value="&lt;div&gt;&lt;font face=&quot;Lucida Console&quot;&gt;download&lt;/font&gt;&lt;/div&gt;" style="edgeLabel;html=1;align=center;verticalAlign=middle;resizable=0;points=[];" vertex="1" connectable="0" parent="1">
          <mxGeometry x="495.0028606921029" y="375" as="geometry" />
        </mxCell>
        <mxCell id="pazgyhZPyo7JdbB8Kf8L-34" value="" style="shape=image;html=1;verticalLabelPosition=bottom;verticalAlign=top;imageAspect=1;aspect=fixed;image=data:image/png,iVBORw0KGgoAAAANSUhEUgAAAQAAAAEACAMAAABrrFhUAAADAFBMVEVHcEzr6+vr6+vr6+vr6+vr6+vr6+vr6+vr6+vr6+vr6+vr6+vr6+vr6+vr6+vr6+vr6+vr6+vr6+vr6+vr6+vr6+vr6+vr6+vr6+vr6+vr6+vr6+vr6+vr6+vr6+vr6+vr6+vr6+vr6+vr6+vr6+vr6+vr6+vr6+vr6+vr6+vr6+vm8pvr6+tTgaDmbwD18vBJepv08e/x7+5Qf5/t7OxLfJxNfZ1Ke5zv7u1Le5xPfp7s7OzmZwDz8e/maQBOfp7u7ezmawDr8vhSgKDy8O7r7e9RgJ9MfJ3r6+rr7vHz8O/s6+vmaADs7Ovw7u3u7e3w7+7y8O/r9PtSgJ/r9Pz08vBKeptRf5/t7exKe5vr7O3mZgDr7/Lr8vnd4uT08fDmbQDmbgDn6enJ09quwM3L1dvq6uvr8/lXhKLg5Obr8PR3mrJahqRjjKhUgqHBzdZbh6Rljqnj5udxlq+Srr/i5ebG0dmmu8mPq76as8Pm6OhzmLBpkKvZ3uJ8nrWBore7ydNdiKXr8fbV3OCovcptk63o6epvla5hi6eMqb3P2N3r8PNWg6KzxM+Do7h1mbHS2d/c4OS/zNXl5+hfiaZ5nLPomFBnj6qVr8F+n7VrkqzN1txgiqdZhaPU29+YscKrv8yHpbq3x9HneReetcWQrL7niDPmcAjnj0DY3uHngynb4OOkusj28/GKp7vE0Ni0xdCiuMewws7nfSBFd5nps4Tr5uG5yNLr4Nbr5N7ndhXqzbPnhS5HeZrv7e3X3eHqz7iftsbr3tSAoLbx8O7r6ObpsX+9y9RUgqDpxKK4x9LndA7ngCTmbgXok0eJprronVnnexvprXnoomPmcgyctMTpq3Tq18bonl3mdxLpuIzq1cHqyq7R2d7r3NDr5+S2xtFAdJfniznr6urr6ejr4tuFpLnolUzpvZTptonDz9dDdpnpwZ3T2t/pqG/q0r3opWnq2sxIeZvomlXq2cnpvpjmYwDpwJvqyKnpu5Hp6ur08u/qxqfq1L/69vPlXwBHGP7gAAAAK3RSTlMAEhfkAy+p6nL71sGfm5f5sT6IDewzq/ZBYu7X0yqoDIrnYTw6916mpEBf0EWrwAAAGw9JREFUeNrsnHlwE/cVx5NAwk0gB4EcbdrJTP9Zrw5fMlqvtYrXrMwCZjHgruRYAjsLGqANhQmdlKRZ2lIQTZpCTaGTaWdMZdUE2sHY4ANwlLE7ro/6iu+Ygu0aJwTjGpvCQNvVvStLMgY2Wn7y+9Maaf397Pu9937vdzz22JRN2ZRN2ZRN2ZRN2ZRN2ZRNWUB7fPHMuXNmT5vxSNm02XPmzlz4+IOrf2LJghnQI2vfWfDdJx5I/vPznoMecXtu3vP3Lf/JRbMgAGzW9568L/nPvvoCBIi98Myzk9e/8GUIIHt54WT1z3waAsqenjkp+dPnQ8DZ/OmT0P8UBKA9NT2y9UPQt+6VwHwIUJt/j/EPAtbuKRK+NgtcALNem1j/t2dDANvsiSuiVyXwb6rF++lnJtL/igQKIPVFWryC6JUJACySgAMYhq5oRfvxRRNMAKUQAfGSwiGzaHEw9NRwniRCldlarhNtFMwL2f95URIAmOb/jTJi/fiLoXpES6SRrJjBsYJe0VxgSQgAC6QBQFuNkndYsX59QYj+r0Q6gGwZhuSKlghmBO8VL5ZIvWYeMmId/bhYP79Y8tMg812TCe0WbQwEnxLNlY4HmJAm0fLA3KAA5kCSiQEwmSuaB8wJCuAliQDgsgCMWnGx5kQvBQUwTSIAmEEExgorxYqC04ICkMo6GHOdA5BXIhaAGUEBSGUZ1GJDOQD9EQsAL87DItoDHElAzBggeQBUKwKLmQWkDoCmy1FYzDpA6gDYCswEwyJWglIHwDRwIwBG70SqB1h6WowwbKw5q4tQAFSz0wFsorVFJQ7A3JbPOQCMDDKRCUDN1pOcfmOLXReRAAjqpkM/lwTFWxqRNACLvZSrAmETVsZGJADcYHM6AHrZoI5IAM4i2AHgPyKOAAkDSL+KmpwRwGZRRyAAgqnIdwQALgJUsFDkASC0bc4ACMP6dgaKPACEtqcRderH8vp1kQeA01/o0m8irzJExAEgMm+49cP6Bq3ID5MiAOpunls/WlusizwAVHeNWz+WP6QlIg0ATV2pc8V/LgDcokR/nsQAEDpzE+rWD+uvM+oIA0CYe0cQk0f/gCFEL5zWgQgg027Vu+XDyOW+oBpxlinp6gUOAE2V5ZEe/WRBiTlwAMS1mcV32ke6acAAEDrtYB3q1V97lg2kn2aZ4jsNNS1NlSxgQ4Ab/u2I0au/sCeQfgMDlTU3jo2N2CkctCDIDFsROKR+mtX2VJVj+rHyMq0BtCxAU3dKvcMfRgrs4/TjDF420oKgSEsV9DDLY0kAIAyWJgzz6bf2++vHmcpRK0qaMKR+mHqoC8WSAMAWD3izP2zS11f6xX+cKR6sRbgAiZReMT/kNRIpAGDaCnzD34g04wbCT35RI+LYJUDm2pmHvWs4/ABoqrrGm/1gDCvSClxczfR2Fjrkc69/lLU89LlR2AHo2CrUN/zRlmpK8I7N5uoCp3wjUm8XY2oQZgCEheZlfxip7RJ0AHGqrZ50ugeaX2SxiDE1Di8Agi22eYt/LvzZhOFf29eaT7oT4xAlzpmBsAIgtPZyYfjjv2ScqSjQG12fjFwUqzUWTgCO3h8ZLPwRFrwJc3eG64pYHQEeAILpykODhj/tWZvr9cNkaXe6eGcHwweAyOwq5ekvrRC0v6iKRvfgQMp7xFwaCRsAQnuDr7+xTaCSuprvaYzbilkCQACE2V7I139D0P6lbnmmBvoByCJqYzhcAHSV5STP/9syBfo7UXdtoM/FRV4YCBMA2pzry/9YfoVg/Yu66dGP1NOALoxQVbz6B71KCYJDmWdhgCyvNEBAAmCH6nj1b6sg/lvsnuSIlfawBJAAcKLcFwBJm6D9T+tsiMczqinR9YcHAMMbAFhHj6DFwRR5imOkgYEgIAHo+jt4/a9OwQAwODcHOycAHWcNgAJginwOgF4WXg6gbUcChwaAAKhxXwQwYWWCaZ7lRr7bAUz5wxZAAVja6ky+CChc4GGuIV7X+CYGQFgAaEd5NaBwEyTdV+iJDsg1BlQAvrcMY7W9gg6oucIbHclbwALQNng9ALlG+eVHLxv0qhZUAGyuF4D/vQC8j8grmcB6wIhHpf9ZIDVu9eYHEQ+KhT0GXPf4OVYACYoAurLWGwPQehZYAIPeVOd3GAovbsR8JbJ494aEOwaUeVT6HwjlA+CCAAMoALy/w13tkSPCSE/31fJWyazi3aAV5rmA6yyYQ+OA0APUusu+aTKMVoM6G9SOIt6ZkDpYicB9WkDgYALAS/Jcno41XsSDxEdnJqxKBxMAVwy75sMmuE0447PcNZl8AIwtw2YwAejsNcaAkZ6GCjCeC5A2Aw0kAIhq1cMBz4QyrXqYPwiK0sEE4En4xg6/E0GWG/m8MQAb8++K3RcO07oA4+4JIP7VDjtA8l0ALejDgQSgNtcjrmrH73YU15UZPtM3M0ACgCx2V2d43LlYdoCfCR2LAwyQi6MEc5M0BToZ7b4zwbduIPLBwfBtkGCa9QELXqpJkAhgfXsmmABwyEo6w5ywLcj9nbdu5hgEdV1mIAFAZtcqKFLltwDCdgkHAdLOgAmAyHQeEB9f8FKdiEkQBUpwIAE4dgI5dkKQNouw4FVrGwRhQMQrVcO9U5QqcrxrpNNvGVzXayUFBTEDKgA60zEvxGr8BgHBhQfepAi5DiwAiGYdyZD0WyLmqoQy3hYSsh3ga3Rwy4g+QCaA0luRiPAAbrzrcvWwsW7IL87hvP4owDHASQAf0DtmfbpxuTACsoCLAM35gN7fzXXe5jnAdYDXB0b0Jqzb764Eth71VILAX6Sk0zXo0cKLOr/uGOLeRTNkBh0AlwuaEf/WB+MOAkiuqBsFJHJ0Fmev6f2ujMq85awGsZYeSwQAgHBt01g5zi+H3DsmkU4wO0Lja0JmcKyTETRMEOd+efOESwMrMlSqlaqMFY82AEhNXSnkbwnQOXaLkNbK0A0xtXKtQnPw+IULx7dnZCVqpA9geYxGlaZUxgScG94c9cV7w3CL0XGPhDnUAFAr1F9k73tn65YDBz7+5Y92ndkpWyldAOpVyQpZ6qoNm/fkfPmXzQEJGC7yaFQhnH57yHURlSb7sPzSpa9Oy5NSUqLj5AmHfrdbliFFADGco654Y+OpH3+w9/0Dh3577MuDgU8B+4Y7XlmI6a1nQ+pf9dGHS3++6+1T2Z++dyghLoqzpfJNn76ZLDUAKoViw/7sk3t/mHT60rmtJ/9+XKVQTngKOr1Kr8+tDOn/kOanp95QrZVlZclSd/7znYSlDgTR5/buUUgJgEqmPP7Xk2+lrFsnP7d+77Gc22sTVcsn/ho7XIc2WSY6LqpKVLlDv0am+tWWWAeBqPgtG7OkAiBDkXw8+92P4+OXRscv+8nn+2NkgaPf+KpAXVDaPbnT0uoTu48mOAnEHfh9qiQArJRtOPPZJnns+qgU+bYPfnBbprzX4/803jBQMunlkNTtR10+ELt15/nwA0hWXPj8rYSE9Y5/aNuOPYmJMff+Xbz65v2clk798xZnHIj69z5FuAGsXp3zjwNy17+T8OHXsrRJfbuvOFQHRH1eqUh+M9AnJ7LjnU9MSdmvDCsAjWLjkaXrUqJcQ/KzmNWTrosDK9ekpcrWKm9/tPGPn+QEcqgY6GiS85nyHWvDCUAD7UiKXxPltmU5/33QEipDpUyUZSmhzV/85mc73j0cvW3XrwMPqBOfyJ3PTDr8i5jwAViR8a/TXvmcB7y3/USyZvnkZcdoVipTs2Rc0XBwd86Zt/905Oj7UcvWyb9K2rU7WMWr3J/yuuOZa6K+TgsfAOX+2NejeBZ76A8bt6sUMkVy2qoMdZA52/IV6pgMzXlunrA6USGTKVLT1I6i+W/Zx/Yd2bt1U3Ss/PuxcdFrouLi/s/elfwksnXxf6jIvbfmKlKhEgiVQKiCEKYNJA5fJIgigqiIQxrHOHSLRJzpji6+OJtOXGnHtImdt3HVSxN746Jf3PTSl7x8VWC/1rbtJw6A3d9ZsNCU3vOrc8/5nd89V3te3k74xfg8UQy7SUvlABDj03tXAdARkB8KDW+ftp37Mxei3SSggMsFNHO5AggJFhNu3yexmkxw9d1J/efencTHlbPsYEvfKCH5IEPRfOG9GgkJwtlJx0/yG3nRVUwCzBaqYA6wp7IUQ1zHQGIgZ9BFwrPJ7p7j9lhuqUO1pVwu1j58fNYzk51o7Z8OTzWO6giaYiD0cRLNE+avkWQkaJ+bmA+tvBn4qWPkxWw1AIDZ5eaeRg7SHt11c3p4A01xHONTmbFmbrePYRiOoySapnme8Jid3z9C0BzkzFPJ9rr6uOz6FzbhjQ4Vgad6hYryAJvF4d+NtTYaoE/iPUZdyWZUu1s1aBi6aX7wbPl0JCiiAP7vmdS+2OQsPj6HVxQArVcVgNfflm/PTjeaVVfcakwbCMLsvAUNo9PsIdT4kDh1AzC0uWF+NrvxcefzYpy0AAG/YxX5a6vIhPj5uFhpALQ4UEwuJNeszk3WHayMZwen5yPqHtc2AcP4YNG0PcBRKjbGpoW+cNdgdny4IzHWPJeK/0cWAHLIYilSnzB+2RH23Lkdeno9gGQL1dwi62uifjXLbzb3no7V5dPpxNpaIp3O142d9jZv1o+8WA1mBvSyo1AEcVa8xx9Ok1MNRfrJ7ArVA8A/lV5lNopa500WAaHLQugq1sFCIZRZxUvarA/5FetLRSJId12Q1QfA0xueaijWHd/p3SWRXwgAmzDuK/jv7rbrqxMAq/KUAKzvXCpCkVUcq0YAvIhNDVifzH800lQgQQTfXDWa4DVeADJbycT+kwHg8IcLyriZqwPVdy6AkSC6Hf7Uc/hk/y/AFO8vbACCSyBr9QGAe/PzkIr47U/2/oODhQRooPOgtEPSsgDgSE1AXieFLPePIPtPsfsr1VXgwNzCEShxk5UDAHxxyl0k6Kj0h/UsjgDe+fLcdCu3sa7XT2kU2LzX+gKU+vPLAACJtbqLMk3oHUAsecdXpBdlRwBoEujOUneLznNgukUIEsFYk5b/OPNHzIRVIQCHbfRXcaxhozdVwzpcAAm4nRXJ7wUylS57FRm3IIBwLHjenM/NdDXyDKR4pweOx3+4vU1YjOLV3e+emCv1ZLhMAOC10tem18xQDdMT47HtnaPa89VgJ6bpnlproDYHSHDgrH4g6l+s1ZTA7tmpJtoHKcM/qgoc2sWF7yEg108GoVHHw5YxxXGf1ZUBAL0t9OVb42/mac4HGYnXLUy19Cez7882hts1Gz4enwkNdg01Nmn6GVOQQK+bgcpuiuz19CommigdDYcSneB+JbYcSdDu798z35BAnB6Cp2lJEwcYn2qaLiDRBt7jvFVB4v98Gxq5ggAL5pKQp7iudAaI91xcWcogXpP7AAndQ8zJc5AIn9XNZWzfyFU8Z96Duuzuxb3dLxcREsHiSp+PI+7puwS5D9Nn6blOISB/9d+GsHzkk9TVcYIj8gFLK1cvYAfBsZ4pWsvnJbiuScKULpzNnZ7XCNeGC7ziVvhtOLZ5AfCHtRfl6wYV5Ah+Xu4OGznIXR513C4J8xIHfbRuqvXsoPckIwMkX3/L5MBGV652AJjIhy6rrHqA6AB45uTN8lkyvGCmOTd0q4mPkrRDAVqStAMD9UscTYz2TU+cLeUnz4OkAAS79+Y71kdPyEfwvhKKkNeOgMWbWZ1rHksv54bP3neHQhPJ5EQo293zuj23nN6arH8RHFAswGWx3y4J61nb46ynMpKYzcvimvwbQBYTLrOKKCqsjJsE5CpIwrJIWrEyWRVoglarTTVr2Vz+dVXh/wPwPAAQxd8ZAL0D+F+Qvy0AekS2bbS+Y39XAHDldJB+2wt+1y0g/Dfkk8zO8/WSgkYx2X8RAA7nIpo0SE+kgMDeQbywee0qD9YHa08Q+ysAQHZ2FY/upIb25lcXeGFsbt+rv8F/bKQimxAQlOj50fbxYB+vi/nXlecPgGWSu2z2PD6pcba7fXtr86U/g7FFAgxA4SMg4OJAcLFtbPk4OfSBggxN6Mwwsh0FynMHwNHMfWt4PQaKUZviD5Fwf6hnI7Z0sJZI59NrBx2x45nkdF+TgVNd/6YcEHBoLVj6fagq2wKZaeqmLMjTEnU5L1T49GljkcRNzYSHUx0p5HjWSdDR9kF6gChIwNGeyeddBlHt0A/E4bsaD+muOkz/nAHAhPiKDnru5b2bCsfqFfS8IwDDWNfJcAOknSU5b6YhHR6ezACT7bklQRvpFb3XtR0crSaSOsjdTRvW5sO5htaOzUxA8GLYc6oCpEp0LOJFJpoZkK8POLNAPM+Ph80+t8SbfyIM85TbzfdN5HZT4uOon+UDQG8HlszIVse4WtEXFoZCifj19dtkl/r9nVgorJ1++ihJmxMnPB4PQfA8XZiWp4iF6Wysrja4D4S7q5/6agBAjwPbS/UNG+HbT29H+4+3T5tr4+SPIiTAZl583llufz/R3zLUF2lsbIz0DbXMJmc2ltK79as1dlcAL+mmzUVGsFYaABbo6z8Oqnuc+0LM5ib9XpXTm26bWrR6tcFgZFKwmmjQ/2r1lT8Y7cREXABAwNnSo96ezh+SFQXAhFLb/QSkzRQXXqrHgEW5U/RqUxGiss/uK2rK1N8/1bMpIma3Vg6AQ0f9a7XGGXWSIfRHJzDpsTIbiU3/+cZSKQD2wVwP71PTutHXuokjL1Z+E86b9l6jCgGAojGzr3DeSedEVJEzDstFiN47cFUEACv4HP5SLOrUMaiI7C2vL7ZyXEtcqQgAKG/4OggG03+X33sFCamOUQ6GFyszJofefJv9IKaaLaicwr8XB6bgm/EGyHDv/fcYRX0EAMT4vOFK42boPqoBgvL0eUDlEQIwZebSMxFt0Kq/F7+PZvQIAFiuil1qGaColvYjPwsE+akioXCPHrGZ896PM2ECUjRDt25h6AqFUJQyAmA/8RDfixdUZGLpj8VOHARMsvex2thLvbhwj/4o0a72EhSkeIKCja8/ewNX0XasjrBlzAGmA0jfULDURrappTtXt/kuqj8MFG/CkfpSN4Z21YzVZmddAB2KNf7FttO1lZnZKZ2k3Ul1GnmGWfhfO1cTk1YaRZ9aLf611U6nM/2ZZqaZycxE8uDxWw3BBIIJROSFAOMGE5AGAwOCVsRfSEWQoKZ0TBHU0sQuJhhQ08SVQxpNOulmVl02sRsXJG66pJv57sN2pqOoIDUpw1lh4ube9777nXvfOXesW8uUfkS7cK0nJT7DBLSLV22dHNYh+jaOupMb8Hm3nq6tWyPJniEZn6REIJRjnFDI5XyEDgrwiy+XKwhCTErBX56xD8p092J7BuvqhHNqa39enPHR00WgHLTFV2Pb+MdPW66ymkdObDssDA/o0q2OmdEz57IOir8kzVyOmsHjaoxum9c0Hg+9cnSvuqwJfeT13v3R0VhMS+FBLDaavL/0OmIYSAU3prsdy48Hn8ybPI8WFi0sEFT9e16s4fI6Jb+OOyI65n8/G/Hx0Tj3mYt5ltcgXEZMQmtd2/W4NRkRXBbxGwzB1WCOB7OshG4JGI2L5l4K5sVFYyBgoStZ1EwAhuSUdraZ9ZF2VtncxlMLzd6p7shD8sBaIhmBxx4b1ZtxseyMEwCFV4oL2rWRneUnw76AEOTOEOMR8y6RUimRSGAOAtBoNOgvpVIkyiaaFHI6GW0W3+xgdEDL7lIRB/qNDpXC/3SRwXo7l+4owDVYkc/91EEwcUGrPTkw/RwE7wEWZ//dlYjy1AijF4IDPnq6OzzWPxFcsvO7cPEhH1f5TIF2fU7C0GjezkzmQAgqsibgev7X1S9wW4HlIal3RZ3xsT6bO3OO1TxKEM6CTQmHicJFGRc9HALKRt/WbOm19c1PPV9P7fXcJVS4VHHYpcomcOLB6oy7k6Ok36GvKHL5mlyTNQG1BeArchjvMAn2kPY+quTR5VB8fK4vbPO5F9Fph3UBIBCl0AZ60WaWyGI0u32PPLPzu0+djumgfkk7BANWJqnoaMkyflUJdIaVuUUe8HEuz+TPzThQmzUBdQVkbojBUMJIFVMsZ98dsmtjyT2/QZ9IBV+4XC8RNlwvgtbUgMG/l4z12CebOojMLplteQc7azwtf5A4qfN3P7GxYGMZ4qA8z0t+jv1QXdYE0D4Rg2+nbPSwV1OMbnyp4D2kpBi4AZ8Pg7HjijibT+LMllhqZdwmYfCaRRT91Jg2mt7lSjtpWRPwU0HCLXQ7AF4ylYrQjaYcca+Zu/+JRSRkcG2hiCKPPrQhawLKCvBtTKbrYUM55J+2H5C1tMI6LZxssS+lov1jj4xc4FYZ1s1hSEZCCV1ezoHzZVkTgF0qwPN6GJ2ZcU7rRx+yoYsRiIlDvHLH9gG4SiC/ey9pcE2Exr0LFq4atUAZhiFBzLh5Yd7hT+Nkfu/apezxY98V4o2Vj06YAmpur2d+cDm6kfD/3gPLpEhBF+hhmJmTD2cfKgLUBIGACd2C6kMfoA+ur4R2TeEFWKcFZFvy3kzCY7QZR3Yderv45KsaD+DnIxJQfq0g46ou8l7qlamX9+bNm8070BCEh8dm4v3ONUd0escVtCYG9HoDgl6fSFiDsGBlYu1VaGp33uRFfcCfrP0dPPtUChYMIXLVRv+tL74STKYFuPg0M8hr5UckAKsvUOECo4jdv+Mc97jpnM1nCJubm28pPQzwIiF8GoTvgkJhxkWHugX1hz4gs2RIA9t3UCY4rMCCZwsxwtdgJpHyT1tj64+KH6usLuTojomTsp6lxPRa/8xs2IceLRfIHgr1H9sMSgYFykKTcdAAeeRqLGbfyPDWlDPq0iftMjEwwtZCjFmqK49MAFZV+DsM1cJ3JD9tR4fbuoN63tDgXzPzY6bhPq8nHB6hEA57vH2z4KCZQgdlYtqVMiw9sE+2bkM1zG/BUDZUHR0/dvPiJyJDLbBgXAqVUMUUkNvgo5Y1pdOTOoTJdBqGX3xCLM2UQwFJyNE/fAJ9yPc3j0kA1nhGs21Ze3sLApsC/DobB03jcfFjl683FTFqbh2bAOx2dfHGX30bOwFoxZsAGnYiXCjW+C+cLH7sXFVxxl91DjtpBr75f8ePMlCEp+BCDvFDJbxYXOFfpGE5ouFGMcV/owHLGZcbrxZL+Fcbb2H5oPKbouBE1T9WYvniSv0Xn3v45+uvYKdB+deXPmNP+bdf/lCOnRplX9Hqamsqzn9WqKipraM1lGEllFBCCSWUUEIJJZRQQgmH4m9U02uIhORDrwAAAABJRU5ErkJggg==;" vertex="1" parent="1">
          <mxGeometry x="285" y="284.5" width="21" height="21" as="geometry" />
        </mxCell>
        <mxCell id="pazgyhZPyo7JdbB8Kf8L-35" value="" style="shape=image;html=1;verticalLabelPosition=bottom;verticalAlign=top;imageAspect=1;aspect=fixed;image=data:image/png,iVBORw0KGgoAAAANSUhEUgAAAQAAAAEACAMAAABrrFhUAAADAFBMVEVHcEzr6+vr6+vr6+vr6+vr6+vr6+vr6+vr6+vr6+vr6+vr6+vr6+vr6+vr6+vr6+vr6+vr6+vr6+vr6+vr6+vr6+vr6+vr6+vr6+vr6+vr6+vr6+vr6+vr6+vr6+vr6+vr6+vr6+vr6+vr6+vr6+vr6+vr6+vr6+vr6+vr6+vr6+vm8pvr6+tTgaDmbwD18vBJepv08e/x7+5Qf5/t7OxLfJxNfZ1Ke5zv7u1Le5xPfp7s7OzmZwDz8e/maQBOfp7u7ezmawDr8vhSgKDy8O7r7e9RgJ9MfJ3r6+rr7vHz8O/s6+vmaADs7Ovw7u3u7e3w7+7y8O/r9PtSgJ/r9Pz08vBKeptRf5/t7exKe5vr7O3mZgDr7/Lr8vnd4uT08fDmbQDmbgDn6enJ09quwM3L1dvq6uvr8/lXhKLg5Obr8PR3mrJahqRjjKhUgqHBzdZbh6Rljqnj5udxlq+Srr/i5ebG0dmmu8mPq76as8Pm6OhzmLBpkKvZ3uJ8nrWBore7ydNdiKXr8fbV3OCovcptk63o6epvla5hi6eMqb3P2N3r8PNWg6KzxM+Do7h1mbHS2d/c4OS/zNXl5+hfiaZ5nLPomFBnj6qVr8F+n7VrkqzN1txgiqdZhaPU29+YscKrv8yHpbq3x9HneReetcWQrL7niDPmcAjnj0DY3uHngynb4OOkusj28/GKp7vE0Ni0xdCiuMewws7nfSBFd5nps4Tr5uG5yNLr4Nbr5N7ndhXqzbPnhS5HeZrv7e3X3eHqz7iftsbr3tSAoLbx8O7r6ObpsX+9y9RUgqDpxKK4x9LndA7ngCTmbgXok0eJprronVnnexvprXnoomPmcgyctMTpq3Tq18bonl3mdxLpuIzq1cHqyq7R2d7r3NDr5+S2xtFAdJfniznr6urr6ejr4tuFpLnolUzpvZTptonDz9dDdpnpwZ3T2t/pqG/q0r3opWnq2sxIeZvomlXq2cnpvpjmYwDpwJvqyKnpu5Hp6ur08u/qxqfq1L/69vPlXwBHGP7gAAAAK3RSTlMAEhfkAy+p6nL71sGfm5f5sT6IDewzq/ZBYu7X0yqoDIrnYTw6916mpEBf0EWrwAAAGw9JREFUeNrsnHlwE/cVx5NAwk0gB4EcbdrJTP9Zrw5fMlqvtYrXrMwCZjHgruRYAjsLGqANhQmdlKRZ2lIQTZpCTaGTaWdMZdUE2sHY4ANwlLE7ro/6iu+Ygu0aJwTjGpvCQNvVvStLMgY2Wn7y+9Maaf397Pu9937vdzz22JRN2ZRN2ZRN2ZRN2ZRN2ZRNWUB7fPHMuXNmT5vxSNm02XPmzlz4+IOrf2LJghnQI2vfWfDdJx5I/vPznoMecXtu3vP3Lf/JRbMgAGzW9568L/nPvvoCBIi98Myzk9e/8GUIIHt54WT1z3waAsqenjkp+dPnQ8DZ/OmT0P8UBKA9NT2y9UPQt+6VwHwIUJt/j/EPAtbuKRK+NgtcALNem1j/t2dDANvsiSuiVyXwb6rF++lnJtL/igQKIPVFWryC6JUJACySgAMYhq5oRfvxRRNMAKUQAfGSwiGzaHEw9NRwniRCldlarhNtFMwL2f95URIAmOb/jTJi/fiLoXpES6SRrJjBsYJe0VxgSQgAC6QBQFuNkndYsX59QYj+r0Q6gGwZhuSKlghmBO8VL5ZIvWYeMmId/bhYP79Y8tMg812TCe0WbQwEnxLNlY4HmJAm0fLA3KAA5kCSiQEwmSuaB8wJCuAliQDgsgCMWnGx5kQvBQUwTSIAmEEExgorxYqC04ICkMo6GHOdA5BXIhaAGUEBSGUZ1GJDOQD9EQsAL87DItoDHElAzBggeQBUKwKLmQWkDoCmy1FYzDpA6gDYCswEwyJWglIHwDRwIwBG70SqB1h6WowwbKw5q4tQAFSz0wFsorVFJQ7A3JbPOQCMDDKRCUDN1pOcfmOLXReRAAjqpkM/lwTFWxqRNACLvZSrAmETVsZGJADcYHM6AHrZoI5IAM4i2AHgPyKOAAkDSL+KmpwRwGZRRyAAgqnIdwQALgJUsFDkASC0bc4ACMP6dgaKPACEtqcRderH8vp1kQeA01/o0m8irzJExAEgMm+49cP6Bq3ID5MiAOpunls/WlusizwAVHeNWz+WP6QlIg0ATV2pc8V/LgDcokR/nsQAEDpzE+rWD+uvM+oIA0CYe0cQk0f/gCFEL5zWgQgg027Vu+XDyOW+oBpxlinp6gUOAE2V5ZEe/WRBiTlwAMS1mcV32ke6acAAEDrtYB3q1V97lg2kn2aZ4jsNNS1NlSxgQ4Ab/u2I0au/sCeQfgMDlTU3jo2N2CkctCDIDFsROKR+mtX2VJVj+rHyMq0BtCxAU3dKvcMfRgrs4/TjDF420oKgSEsV9DDLY0kAIAyWJgzz6bf2++vHmcpRK0qaMKR+mHqoC8WSAMAWD3izP2zS11f6xX+cKR6sRbgAiZReMT/kNRIpAGDaCnzD34g04wbCT35RI+LYJUDm2pmHvWs4/ABoqrrGm/1gDCvSClxczfR2Fjrkc69/lLU89LlR2AHo2CrUN/zRlmpK8I7N5uoCp3wjUm8XY2oQZgCEheZlfxip7RJ0AHGqrZ50ugeaX2SxiDE1Di8Agi22eYt/LvzZhOFf29eaT7oT4xAlzpmBsAIgtPZyYfjjv2ScqSjQG12fjFwUqzUWTgCO3h8ZLPwRFrwJc3eG64pYHQEeAILpykODhj/tWZvr9cNkaXe6eGcHwweAyOwq5ekvrRC0v6iKRvfgQMp7xFwaCRsAQnuDr7+xTaCSuprvaYzbilkCQACE2V7I139D0P6lbnmmBvoByCJqYzhcAHSV5STP/9syBfo7UXdtoM/FRV4YCBMA2pzry/9YfoVg/Yu66dGP1NOALoxQVbz6B71KCYJDmWdhgCyvNEBAAmCH6nj1b6sg/lvsnuSIlfawBJAAcKLcFwBJm6D9T+tsiMczqinR9YcHAMMbAFhHj6DFwRR5imOkgYEgIAHo+jt4/a9OwQAwODcHOycAHWcNgAJginwOgF4WXg6gbUcChwaAAKhxXwQwYWWCaZ7lRr7bAUz5wxZAAVja6ky+CChc4GGuIV7X+CYGQFgAaEd5NaBwEyTdV+iJDsg1BlQAvrcMY7W9gg6oucIbHclbwALQNng9ALlG+eVHLxv0qhZUAGyuF4D/vQC8j8grmcB6wIhHpf9ZIDVu9eYHEQ+KhT0GXPf4OVYACYoAurLWGwPQehZYAIPeVOd3GAovbsR8JbJ494aEOwaUeVT6HwjlA+CCAAMoALy/w13tkSPCSE/31fJWyazi3aAV5rmA6yyYQ+OA0APUusu+aTKMVoM6G9SOIt6ZkDpYicB9WkDgYALAS/Jcno41XsSDxEdnJqxKBxMAVwy75sMmuE0447PcNZl8AIwtw2YwAejsNcaAkZ6GCjCeC5A2Aw0kAIhq1cMBz4QyrXqYPwiK0sEE4En4xg6/E0GWG/m8MQAb8++K3RcO07oA4+4JIP7VDjtA8l0ALejDgQSgNtcjrmrH73YU15UZPtM3M0ACgCx2V2d43LlYdoCfCR2LAwyQi6MEc5M0BToZ7b4zwbduIPLBwfBtkGCa9QELXqpJkAhgfXsmmABwyEo6w5ywLcj9nbdu5hgEdV1mIAFAZtcqKFLltwDCdgkHAdLOgAmAyHQeEB9f8FKdiEkQBUpwIAE4dgI5dkKQNouw4FVrGwRhQMQrVcO9U5QqcrxrpNNvGVzXayUFBTEDKgA60zEvxGr8BgHBhQfepAi5DiwAiGYdyZD0WyLmqoQy3hYSsh3ga3Rwy4g+QCaA0luRiPAAbrzrcvWwsW7IL87hvP4owDHASQAf0DtmfbpxuTACsoCLAM35gN7fzXXe5jnAdYDXB0b0Jqzb764Eth71VILAX6Sk0zXo0cKLOr/uGOLeRTNkBh0AlwuaEf/WB+MOAkiuqBsFJHJ0Fmev6f2ujMq85awGsZYeSwQAgHBt01g5zi+H3DsmkU4wO0Lja0JmcKyTETRMEOd+efOESwMrMlSqlaqMFY82AEhNXSnkbwnQOXaLkNbK0A0xtXKtQnPw+IULx7dnZCVqpA9geYxGlaZUxgScG94c9cV7w3CL0XGPhDnUAFAr1F9k73tn65YDBz7+5Y92ndkpWyldAOpVyQpZ6qoNm/fkfPmXzQEJGC7yaFQhnH57yHURlSb7sPzSpa9Oy5NSUqLj5AmHfrdbliFFADGco654Y+OpH3+w9/0Dh3577MuDgU8B+4Y7XlmI6a1nQ+pf9dGHS3++6+1T2Z++dyghLoqzpfJNn76ZLDUAKoViw/7sk3t/mHT60rmtJ/9+XKVQTngKOr1Kr8+tDOn/kOanp95QrZVlZclSd/7znYSlDgTR5/buUUgJgEqmPP7Xk2+lrFsnP7d+77Gc22sTVcsn/ho7XIc2WSY6LqpKVLlDv0am+tWWWAeBqPgtG7OkAiBDkXw8+92P4+OXRscv+8nn+2NkgaPf+KpAXVDaPbnT0uoTu48mOAnEHfh9qiQArJRtOPPZJnns+qgU+bYPfnBbprzX4/803jBQMunlkNTtR10+ELt15/nwA0hWXPj8rYSE9Y5/aNuOPYmJMff+Xbz65v2clk798xZnHIj69z5FuAGsXp3zjwNy17+T8OHXsrRJfbuvOFQHRH1eqUh+M9AnJ7LjnU9MSdmvDCsAjWLjkaXrUqJcQ/KzmNWTrosDK9ekpcrWKm9/tPGPn+QEcqgY6GiS85nyHWvDCUAD7UiKXxPltmU5/33QEipDpUyUZSmhzV/85mc73j0cvW3XrwMPqBOfyJ3PTDr8i5jwAViR8a/TXvmcB7y3/USyZvnkZcdoVipTs2Rc0XBwd86Zt/905Oj7UcvWyb9K2rU7WMWr3J/yuuOZa6K+TgsfAOX+2NejeBZ76A8bt6sUMkVy2qoMdZA52/IV6pgMzXlunrA6USGTKVLT1I6i+W/Zx/Yd2bt1U3Ss/PuxcdFrouLi/s/elfwksnXxf6jIvbfmKlKhEgiVQKiCEKYNJA5fJIgigqiIQxrHOHSLRJzpji6+OJtOXGnHtImdt3HVSxN746Jf3PTSl7x8VWC/1rbtJw6A3d9ZsNCU3vOrc8/5nd89V3te3k74xfg8UQy7SUvlABDj03tXAdARkB8KDW+ftp37Mxei3SSggMsFNHO5AggJFhNu3yexmkxw9d1J/efencTHlbPsYEvfKCH5IEPRfOG9GgkJwtlJx0/yG3nRVUwCzBaqYA6wp7IUQ1zHQGIgZ9BFwrPJ7p7j9lhuqUO1pVwu1j58fNYzk51o7Z8OTzWO6giaYiD0cRLNE+avkWQkaJ+bmA+tvBn4qWPkxWw1AIDZ5eaeRg7SHt11c3p4A01xHONTmbFmbrePYRiOoySapnme8Jid3z9C0BzkzFPJ9rr6uOz6FzbhjQ4Vgad6hYryAJvF4d+NtTYaoE/iPUZdyWZUu1s1aBi6aX7wbPl0JCiiAP7vmdS+2OQsPj6HVxQArVcVgNfflm/PTjeaVVfcakwbCMLsvAUNo9PsIdT4kDh1AzC0uWF+NrvxcefzYpy0AAG/YxX5a6vIhPj5uFhpALQ4UEwuJNeszk3WHayMZwen5yPqHtc2AcP4YNG0PcBRKjbGpoW+cNdgdny4IzHWPJeK/0cWAHLIYilSnzB+2RH23Lkdeno9gGQL1dwi62uifjXLbzb3no7V5dPpxNpaIp3O142d9jZv1o+8WA1mBvSyo1AEcVa8xx9Ok1MNRfrJ7ArVA8A/lV5lNopa500WAaHLQugq1sFCIZRZxUvarA/5FetLRSJId12Q1QfA0xueaijWHd/p3SWRXwgAmzDuK/jv7rbrqxMAq/KUAKzvXCpCkVUcq0YAvIhNDVifzH800lQgQQTfXDWa4DVeADJbycT+kwHg8IcLyriZqwPVdy6AkSC6Hf7Uc/hk/y/AFO8vbACCSyBr9QGAe/PzkIr47U/2/oODhQRooPOgtEPSsgDgSE1AXieFLPePIPtPsfsr1VXgwNzCEShxk5UDAHxxyl0k6Kj0h/UsjgDe+fLcdCu3sa7XT2kU2LzX+gKU+vPLAACJtbqLMk3oHUAsecdXpBdlRwBoEujOUneLznNgukUIEsFYk5b/OPNHzIRVIQCHbfRXcaxhozdVwzpcAAm4nRXJ7wUylS57FRm3IIBwLHjenM/NdDXyDKR4pweOx3+4vU1YjOLV3e+emCv1ZLhMAOC10tem18xQDdMT47HtnaPa89VgJ6bpnlproDYHSHDgrH4g6l+s1ZTA7tmpJtoHKcM/qgoc2sWF7yEg108GoVHHw5YxxXGf1ZUBAL0t9OVb42/mac4HGYnXLUy19Cez7882hts1Gz4enwkNdg01Nmn6GVOQQK+bgcpuiuz19CommigdDYcSneB+JbYcSdDu798z35BAnB6Cp2lJEwcYn2qaLiDRBt7jvFVB4v98Gxq5ggAL5pKQp7iudAaI91xcWcogXpP7AAndQ8zJc5AIn9XNZWzfyFU8Z96Duuzuxb3dLxcREsHiSp+PI+7puwS5D9Nn6blOISB/9d+GsHzkk9TVcYIj8gFLK1cvYAfBsZ4pWsvnJbiuScKULpzNnZ7XCNeGC7ziVvhtOLZ5AfCHtRfl6wYV5Ah+Xu4OGznIXR513C4J8xIHfbRuqvXsoPckIwMkX3/L5MBGV652AJjIhy6rrHqA6AB45uTN8lkyvGCmOTd0q4mPkrRDAVqStAMD9UscTYz2TU+cLeUnz4OkAAS79+Y71kdPyEfwvhKKkNeOgMWbWZ1rHksv54bP3neHQhPJ5EQo293zuj23nN6arH8RHFAswGWx3y4J61nb46ynMpKYzcvimvwbQBYTLrOKKCqsjJsE5CpIwrJIWrEyWRVoglarTTVr2Vz+dVXh/wPwPAAQxd8ZAL0D+F+Qvy0AekS2bbS+Y39XAHDldJB+2wt+1y0g/Dfkk8zO8/WSgkYx2X8RAA7nIpo0SE+kgMDeQbywee0qD9YHa08Q+ysAQHZ2FY/upIb25lcXeGFsbt+rv8F/bKQimxAQlOj50fbxYB+vi/nXlecPgGWSu2z2PD6pcba7fXtr86U/g7FFAgxA4SMg4OJAcLFtbPk4OfSBggxN6Mwwsh0FynMHwNHMfWt4PQaKUZviD5Fwf6hnI7Z0sJZI59NrBx2x45nkdF+TgVNd/6YcEHBoLVj6fagq2wKZaeqmLMjTEnU5L1T49GljkcRNzYSHUx0p5HjWSdDR9kF6gChIwNGeyeddBlHt0A/E4bsaD+muOkz/nAHAhPiKDnru5b2bCsfqFfS8IwDDWNfJcAOknSU5b6YhHR6ezACT7bklQRvpFb3XtR0crSaSOsjdTRvW5sO5htaOzUxA8GLYc6oCpEp0LOJFJpoZkK8POLNAPM+Ph80+t8SbfyIM85TbzfdN5HZT4uOon+UDQG8HlszIVse4WtEXFoZCifj19dtkl/r9nVgorJ1++ihJmxMnPB4PQfA8XZiWp4iF6Wysrja4D4S7q5/6agBAjwPbS/UNG+HbT29H+4+3T5tr4+SPIiTAZl583llufz/R3zLUF2lsbIz0DbXMJmc2ltK79as1dlcAL+mmzUVGsFYaABbo6z8Oqnuc+0LM5ib9XpXTm26bWrR6tcFgZFKwmmjQ/2r1lT8Y7cREXABAwNnSo96ezh+SFQXAhFLb/QSkzRQXXqrHgEW5U/RqUxGiss/uK2rK1N8/1bMpIma3Vg6AQ0f9a7XGGXWSIfRHJzDpsTIbiU3/+cZSKQD2wVwP71PTutHXuokjL1Z+E86b9l6jCgGAojGzr3DeSedEVJEzDstFiN47cFUEACv4HP5SLOrUMaiI7C2vL7ZyXEtcqQgAKG/4OggG03+X33sFCamOUQ6GFyszJofefJv9IKaaLaicwr8XB6bgm/EGyHDv/fcYRX0EAMT4vOFK42boPqoBgvL0eUDlEQIwZebSMxFt0Kq/F7+PZvQIAFiuil1qGaColvYjPwsE+akioXCPHrGZ896PM2ECUjRDt25h6AqFUJQyAmA/8RDfixdUZGLpj8VOHARMsvex2thLvbhwj/4o0a72EhSkeIKCja8/ewNX0XasjrBlzAGmA0jfULDURrappTtXt/kuqj8MFG/CkfpSN4Z21YzVZmddAB2KNf7FttO1lZnZKZ2k3Ul1GnmGWfhfO1cTk1YaRZ9aLf611U6nM/2ZZqaZycxE8uDxWw3BBIIJROSFAOMGE5AGAwOCVsRfSEWQoKZ0TBHU0sQuJhhQ08SVQxpNOulmVl02sRsXJG66pJv57sN2pqOoIDUpw1lh4ube9777nXvfOXesW8uUfkS7cK0nJT7DBLSLV22dHNYh+jaOupMb8Hm3nq6tWyPJniEZn6REIJRjnFDI5XyEDgrwiy+XKwhCTErBX56xD8p092J7BuvqhHNqa39enPHR00WgHLTFV2Pb+MdPW66ymkdObDssDA/o0q2OmdEz57IOir8kzVyOmsHjaoxum9c0Hg+9cnSvuqwJfeT13v3R0VhMS+FBLDaavL/0OmIYSAU3prsdy48Hn8ybPI8WFi0sEFT9e16s4fI6Jb+OOyI65n8/G/Hx0Tj3mYt5ltcgXEZMQmtd2/W4NRkRXBbxGwzB1WCOB7OshG4JGI2L5l4K5sVFYyBgoStZ1EwAhuSUdraZ9ZF2VtncxlMLzd6p7shD8sBaIhmBxx4b1ZtxseyMEwCFV4oL2rWRneUnw76AEOTOEOMR8y6RUimRSGAOAtBoNOgvpVIkyiaaFHI6GW0W3+xgdEDL7lIRB/qNDpXC/3SRwXo7l+4owDVYkc/91EEwcUGrPTkw/RwE7wEWZ//dlYjy1AijF4IDPnq6OzzWPxFcsvO7cPEhH1f5TIF2fU7C0GjezkzmQAgqsibgev7X1S9wW4HlIal3RZ3xsT6bO3OO1TxKEM6CTQmHicJFGRc9HALKRt/WbOm19c1PPV9P7fXcJVS4VHHYpcomcOLB6oy7k6Ok36GvKHL5mlyTNQG1BeArchjvMAn2kPY+quTR5VB8fK4vbPO5F9Fph3UBIBCl0AZ60WaWyGI0u32PPLPzu0+djumgfkk7BANWJqnoaMkyflUJdIaVuUUe8HEuz+TPzThQmzUBdQVkbojBUMJIFVMsZ98dsmtjyT2/QZ9IBV+4XC8RNlwvgtbUgMG/l4z12CebOojMLplteQc7azwtf5A4qfN3P7GxYGMZ4qA8z0t+jv1QXdYE0D4Rg2+nbPSwV1OMbnyp4D2kpBi4AZ8Pg7HjijibT+LMllhqZdwmYfCaRRT91Jg2mt7lSjtpWRPwU0HCLXQ7AF4ylYrQjaYcca+Zu/+JRSRkcG2hiCKPPrQhawLKCvBtTKbrYUM55J+2H5C1tMI6LZxssS+lov1jj4xc4FYZ1s1hSEZCCV1ezoHzZVkTgF0qwPN6GJ2ZcU7rRx+yoYsRiIlDvHLH9gG4SiC/ey9pcE2Exr0LFq4atUAZhiFBzLh5Yd7hT+Nkfu/apezxY98V4o2Vj06YAmpur2d+cDm6kfD/3gPLpEhBF+hhmJmTD2cfKgLUBIGACd2C6kMfoA+ur4R2TeEFWKcFZFvy3kzCY7QZR3Yderv45KsaD+DnIxJQfq0g46ou8l7qlamX9+bNm8070BCEh8dm4v3ONUd0escVtCYG9HoDgl6fSFiDsGBlYu1VaGp33uRFfcCfrP0dPPtUChYMIXLVRv+tL74STKYFuPg0M8hr5UckAKsvUOECo4jdv+Mc97jpnM1nCJubm28pPQzwIiF8GoTvgkJhxkWHugX1hz4gs2RIA9t3UCY4rMCCZwsxwtdgJpHyT1tj64+KH6usLuTojomTsp6lxPRa/8xs2IceLRfIHgr1H9sMSgYFykKTcdAAeeRqLGbfyPDWlDPq0iftMjEwwtZCjFmqK49MAFZV+DsM1cJ3JD9tR4fbuoN63tDgXzPzY6bhPq8nHB6hEA57vH2z4KCZQgdlYtqVMiw9sE+2bkM1zG/BUDZUHR0/dvPiJyJDLbBgXAqVUMUUkNvgo5Y1pdOTOoTJdBqGX3xCLM2UQwFJyNE/fAJ9yPc3j0kA1nhGs21Ze3sLApsC/DobB03jcfFjl683FTFqbh2bAOx2dfHGX30bOwFoxZsAGnYiXCjW+C+cLH7sXFVxxl91DjtpBr75f8ePMlCEp+BCDvFDJbxYXOFfpGE5ouFGMcV/owHLGZcbrxZL+Fcbb2H5oPKbouBE1T9WYvniSv0Xn3v45+uvYKdB+deXPmNP+bdf/lCOnRplX9Hqamsqzn9WqKipraM1lGEllFBCCSWUUEIJJZRQQgmH4m9U02uIhORDrwAAAABJRU5ErkJggg==;" vertex="1" parent="1">
          <mxGeometry x="324.5" y="364.5" width="21" height="21" as="geometry" />
        </mxCell>
        <mxCell id="pazgyhZPyo7JdbB8Kf8L-37" value="" style="shape=image;html=1;verticalLabelPosition=bottom;verticalAlign=top;imageAspect=1;aspect=fixed;image=data:image/svg+xml,PHN2ZyB4bWxucz0iaHR0cDovL3d3dy53My5vcmcvMjAwMC9zdmciIHZpZXdCb3g9IjAgMCA0OCA0OCI+PHBhdGggZmlsbD0iI2ZmYTAwMCIgZD0ibTQwIDEyaC0xOGwtNC00aC0xMGMtMi4yIDAtNCAxLjgtNCA0djhoNDB2LTRjMC0yLjItMS44LTQtNC00eiIvPjxwYXRoIGZpbGw9IiNmZmNhMjgiIGQ9Im00MCAxMmgtMzJjLTIuMiAwLTQgMS44LTQgNHYyMGMwIDIuMiAxLjggNCA0IDRoMzJjMi4yIDAgNC0xLjggNC00di0yMGMwLTIuMi0xLjgtNC00LTR6Ii8+PC9zdmc+;" vertex="1" parent="1">
          <mxGeometry x="285" y="322.25" width="25.5" height="25.5" as="geometry" />
        </mxCell>
        <mxCell id="pazgyhZPyo7JdbB8Kf8L-38" value="" style="shape=image;html=1;verticalLabelPosition=bottom;verticalAlign=top;imageAspect=1;aspect=fixed;image=data:image/svg+xml,PHN2ZyB4bWxucz0iaHR0cDovL3d3dy53My5vcmcvMjAwMC9zdmciIHZpZXdCb3g9IjAgMCA0OCA0OCI+PHBhdGggZmlsbD0iI2ZmYTAwMCIgZD0ibTQwIDEyaC0xOGwtNC00aC0xMGMtMi4yIDAtNCAxLjgtNCA0djhoNDB2LTRjMC0yLjItMS44LTQtNC00eiIvPjxwYXRoIGZpbGw9IiNmZmNhMjgiIGQ9Im00MCAxMmgtMzJjLTIuMiAwLTQgMS44LTQgNHYyMGMwIDIuMiAxLjggNCA0IDRoMzJjMi4yIDAgNC0xLjggNC00di0yMGMwLTIuMi0xLjgtNC00LTR6Ii8+PC9zdmc+;" vertex="1" parent="1">
          <mxGeometry x="243" y="201.5" width="25.5" height="25.5" as="geometry" />
        </mxCell>
        <mxCell id="pazgyhZPyo7JdbB8Kf8L-39" value="" style="shape=image;html=1;verticalLabelPosition=bottom;verticalAlign=top;imageAspect=1;aspect=fixed;image=data:image/svg+xml,PHN2ZyB4bWxucz0iaHR0cDovL3d3dy53My5vcmcvMjAwMC9zdmciIHZpZXdCb3g9IjAgMCA0OCA0OCI+PHBhdGggZmlsbD0iI2ZmYTAwMCIgZD0ibTQwIDEyaC0xOGwtNC00aC0xMGMtMi4yIDAtNCAxLjgtNCA0djhoNDB2LTRjMC0yLjItMS44LTQtNC00eiIvPjxwYXRoIGZpbGw9IiNmZmNhMjgiIGQ9Im00MCAxMmgtMzJjLTIuMiAwLTQgMS44LTQgNHYyMGMwIDIuMiAxLjggNCA0IDRoMzJjMi4yIDAgNC0xLjggNC00di0yMGMwLTIuMi0xLjgtNC00LTR6Ii8+PC9zdmc+;" vertex="1" parent="1">
          <mxGeometry x="243" y="122.25" width="25.5" height="25.5" as="geometry" />
        </mxCell>
        <mxCell id="pazgyhZPyo7JdbB8Kf8L-40" value="" style="shape=image;html=1;verticalLabelPosition=bottom;verticalAlign=top;imageAspect=1;aspect=fixed;image=data:image/svg+xml,PHN2ZyB4bWxucz0iaHR0cDovL3d3dy53My5vcmcvMjAwMC9zdmciIHZpZXdCb3g9IjAgMCA0OCA0OCI+PHBhdGggZmlsbD0iI2ZmYTAwMCIgZD0ibTQwIDEyaC0xOGwtNC00aC0xMGMtMi4yIDAtNCAxLjgtNCA0djhoNDB2LTRjMC0yLjItMS44LTQtNC00eiIvPjxwYXRoIGZpbGw9IiNmZmNhMjgiIGQ9Im00MCAxMmgtMzJjLTIuMiAwLTQgMS44LTQgNHYyMGMwIDIuMiAxLjggNCA0IDRoMzJjMi4yIDAgNC0xLjggNC00di0yMGMwLTIuMi0xLjgtNC00LTR6Ii8+PC9zdmc+;" vertex="1" parent="1">
          <mxGeometry x="243" y="82.25" width="25.5" height="25.5" as="geometry" />
        </mxCell>
        <mxCell id="pazgyhZPyo7JdbB8Kf8L-41" value="" style="shape=image;html=1;verticalLabelPosition=bottom;verticalAlign=top;imageAspect=1;aspect=fixed;image=data:image/png,iVBORw0KGgoAAAANSUhEUgAAAgAAAAIACAMAAADDpiTIAAAACXBIWXMAAA7EAAAOxAGVKw4bAAADAFBMVEVHcEyHc2yMdW2HcGiAaWGJcmqBaWB+ZVyDbmeFbmWFbmaMd26HcWmNd3CIcWmNeXGFbmaFbmZ/Zl6NeXKNeHCNd3CGb2d/Zl1+Zl6AZ15/ZV1/Zl6NenGOenN/Z16Ldm+AZ16NeHF+ZV2NbmPXwa7WwK3SvKqOenPRu6nVv6yRc2l+ZVzUvqzUvqtdQDehiH/QuqjLtaTVv62Ob2TAqZrFrp6/qJnGr5+7pJbKtKPMtqW6o5W+p5jNt6a8pZeRc2jJs6LTvau5opTDrJ29ppjErZ2ymo7Nt6WxmY3HsKCLdW7PuadtTEHTvaqfhXyPcWbDrJzFr5/ErZ6xmo2znI+1npGym47LtKO0nZCPcGXBqpvDrZ24oZPSvKm9ppe2n5HGsKCzm4+eg3qSdGm3oJKDa2OehHuQcmeMd3CJc2uGb2ewmIyHcGjOuKadgnnJsqK2npHNtqXIsqG0nI+8pZa1nZC3n5LErp6+p5nMtaS2n5LKs6PWwK6RdGm1npDMtqS0nJChh37Cq5x/Z1/IsaGghn2ZfHGQcmi7o5Wki4KQcWd/Zl2KdG2NeXKgh37HsaDCq5uljYOBaWGDbGSFbma3oJOEbWWIcmu4oJN+Zl25oZSAaF+Ldm+CamKHcWmmjoSjioGOcGWdg3p/Z16iiYDCrJyBaWCMbmOLd29+ZV3PuKenj4SPcGafhn2vl4vKs6Kzm46/qJrGsJ/Frp/Quqm9pZetlYqUd22KcGeokIWpkYakjIKTdWuslImqkoerk4i+qJm6pJWafnWcgHafhHuXenCCamGYgHSqj4Kgg3aWeW+VeG6Xe3GkiXuzmYq9pZW6opWcgXjPuaiZfXOHb2ibgHaiioCZfXSBZl2bf3KegnfBqprOt6aYf3aMcWeXfHOVe3OUenGPdWuJbGONcmmSeG+Rdm2WfnWghXqGamCwmY2ih3yli4CnjYGOdGqkiX5zVUtvUUd3WlB9YFaZgXloS0JgQzqRe3NjRj2bhHuQc2i6oZHBqJeeiX25o5S7qJcKyWD+AAAAI3RSTlMAldMGlbOz8ZWzErVJgR75Kjpo4GvFVel/wKD3nPDO7tup++U99LUAAB13SURBVHja7J1fTFvXHccd0KQJMA7CjvYAQoilTsZiWLI/2p8qi7Q2DQUvb9Mm5cUPjqcJGpZtUqRmVaUQpelg2dOqCG3MmhbUiKaaJkLS/JEyKpFkCfMqFKeJAccQF7Vp/Q8MTR4W38uf43vOtY8N9/rew/fziG2u7/l+7u/8zrnGWCwAAAAAAAAAAAAAAAAAAAAAAAAAAACsUl1l31LpqK2vtzlBsdjqa8scjVZ7Tbmpsi+vslbWO53ptDONDNdJenkIa+vs1eZIv8LeWI/cNKF2S43hr/1tlaj4mjpg3Wrki99aj6Kv8YzgdDq2GbXrq8PFr1MZsJcj/k2ugNGqQLkVjZ++OAzVD1bVIhHde4G6CsNc/nUIpCTzQJUx8q/B5V8ieuuM0Aza0fyVjrKS7wqUN6q/u2goteQd6utrAUXS19c3tLSUiqpvrtSXeBqocKiFnxpCfhtowlJKRQKbvaSLf/b0H13CVb/xDKk4YC1d/ltZ+adTSF8rvFGWAXUly5+x+ZPGxa9tGQgZx4Dq2l4lzlTfm0BbhqLUsPduKUn/R+cf6lG8WX94ZC7Y3NwcjMxMu/Of29WfgCx+c+qdo8PnlcPkTSuvu1L0AeUOZfxpL/kue8LB2KKLZD4RuZFbgJYTXwc0O4999+WBrLFNUdee/jeHGpVvIUpe/rPJ7PBXJXg7lMuAgU7EzWb7a0feylEEnDa97w3Zlfmn+lbxzs271InNDPWpcmkXslYtBAevrQ0U1QnU6ntrqMamMHBpLf7gois38zkUeBlB5+DAdVUDnJWlbACd3tX3NTLvyk88rGrAGcScg9df+tPqSCkaAaeeW4J1ivbPvfKmQjEXH0mvigB/fxUx52LX79QMsOl3Y6hK4d5q/iOLLl7m1YrA8HaknJMTH6gY4NBtBVjLrv/upKsAFiIqBjxAxrnZMbxacEszCVizxVvp//xxV2Ek2b3gQAcyzs3uoytjld0J1uuzEqi2Mdd/qXlXoSTYBhxBxPl2Bc6u9NzZ+wF1JegAo8Xnr2ZAC7aD8vLDlWnXqXsfuDWrAKSXI+wqJn81A7AZkJ+VxcBS1uXYqPse8HID4I67iqOZOQl0I+C8s8ArzDZgq84dQLRHoi/hKpaRHgbvI+D8GwKX5bHKngTq9F0CON3ym4gUnb9rYYohQF8rAs5LZ4s8WFm7ATatv0SgvCFrBSC/hXsLxQvgirsZBvwX+ebnF8slgFgJ+Hq1/mTAtuwtYPkdxF3rIcgQYGA38s1/Y+A9ebDIPtBXq7EADkYByDcB5KkPCyGGAd95HeTl3TflwUoTFaBX2z8UqMgcQtEB+NVuAMwngiOzE13Pn+UNzY68nVBbKSYYAryCeDk4S3UBPo0/H2hnFIAg87JORCaoVEORGLMahGkBWvZtB3l5YYDqAnobNP17wUpSAPUCEI94e9j4I4yGIcZ44kuIl4NTy1cWGYuWHw4rt9F7AHN0SZ/uycUs/ZkBxlLwKNLl4JC8FHSTAmi5DqgiWwB5BnArZ/ZY7vgzhJUKJOnnfLAb8XLwW2Ub2NtbptcukDwDPFJ+3q+Hh8nseWORMWN0I10OLtCbQTYNbwo7fGtEhySyN4ET/iE+urJfN0I/49tIl4fz0mC5iWB8Gi4EbcRhUvKRyUt5cWSIm77IQtZdQQo0AVyclUcrTSSjXROwlfRsSTrwY7L8Tw0VQpjoHhbd1MOXES4Pr8mjFSWS0e4D4tuIo/TKB24m1n6pocIIEQbMUo+27ES6HOxskUYrtRaMhrvBVkKAtFtirZ+Pd7kLJbC2J/AP+tFOpMvDsDRYfiIam2ZbQXVkDyintLiO/N3u1KoBCfrBAwiXh3ekwfL2EtlU67EICEnHDa3O/wFmwv6LkWAymQxGbnuZj0+szALz9GNYBnBxRh4tpx7LgDJyESAddmUXYHGKka73y2T7KvHkY5YD08trgQX6oVMIl4cfy6NFLAO0+1vxBkIA+YpfuRP8OZ3f6GSsPZsY41nuyeXfMEE9cgTh8tC6fCUR2dj12AbwS4ddvhOYpIO9l2inSdIxe5f/nChMPfI+wuVaBsijFdVjI4DcBpDruZzevJ9K73i8nUX8Nt0myG3AI+qBX+0GPLRQAnxNq3uBagI8psI7164GHfQjlUnkPWTLxYDcjq9FM7hFZwHoJdxMuzq0LdJtgRnqx8PIlovPlAL4dBZg4YYyunCO/Nvj1NOlDxVDAOMLwOgBmlkdoD+WS4D2BLUcTEIAcwhArwLmMh/qVa7/5tpzc44qARDAHALUUvsAM4wO4Eae/NvjfkYXwBBgJ+BBRwHoncApxhIgmE8AugQ8ggCmEKCSuhk0ukBt4nvjeQWgisboPAQwgwBbyNvBoxLx5lEFV9rz85HyRUnXpPJHoxCAUwBptHQRwE4LkJxV5hbkEOCc8kWPIYAZBKgi14Ee6bhhjyK2TxIcAiSVYXsWIYAJBKgmBQiMsolxCJCgXwUBTCCApWFwjaiXDUf+7THqVc2T1I+uIlsu3pJGK0REo50AlcRRnOz8u3gEiFMvm4QAZhDAShxl0M8UwF+cAP+BAGYQoGYw/xxQ3BTgn4EAJhAgqwlIswXgaQKT9MtmIYAZBGgkS0CAKUCSQ4Ag/bIQLcA3AQ8DegqwjRRgmilAhEOAz+mXBSCAGQQotxHH8THbwCkOARi1g/5d15Gt8QTIngPYbWCimBaAwSVka0ABqgbzloDJvAJchACmFcBSm7cE+POtAxJeCGBeAez9BIMBD4PjeQQIe7iAAJwCSKMVJWLRVICKBtKANCu50dwrwTkPBDCxABYrKUB/lBVdINckkOiCAGYWoDy7BPQzJ4GP1A2ITXDm7xnbBXjQuwIoSkAv84K+p2ZAgjt/CGBUARQlgNkGeCbYfUAy4IEAZhcgeyGg0gZ4us7Rnw6OfcPjgQDmF8DiyDYgxA5wYi5bgVgk4IEAQgiw1cZlgKfry+RKLxALXunyeCCAGAIo+kB1AzJLwvDj4xc/LDT84gU4ND52RwCuHjS0AMpJIJcBRVOUAOMXmwTh418bWYDqBoUBUf+Gc35f4dxtEofDD/jOeUAaLZ0FsFQpBOhPdxlAgKdNIrH3goEFoNqAfl+q5AJ07xVKgKabRhbA0qg0oD/aVWIBrjYJxhkjC1DuaFPiC3VtIIULcFs0AcZ4zvoLabSiRA76CGCpoA1oS0+UUIALouXfdNLQAlgqytq0VKBgAZ4JJ8DfOgwtALMGPFcgWiIBxoUToGmHsQWwVFSyDGjzhUMBVIANYI/BK8DzTrCujU1/OjqBHmC9fLjP6AJYLNY2dXyz6eloNMTHRGC9AnRcFE2AMRMIYKlpaNsgfNOB9S0Dr4smwAMzCKDWCBRFmlDgfEehdB8WK/+Puc665AJYLPYNKwJtvol1CNAh1r2Aw380iwCW6koNDChCgI5hgfI//azDNAJYLFVlG2ZAYB0CdDy9Ikr+9//ZYSYBLOX22o3qA9YjQEfr0yc3zc+dsWeHOswlQEaBDaoCgfUIsPkwjACZLxCp3MAS8NcXAA9GEuB5O2hdfxnwQQDzCpD50LjVsU4D5IXAE2RrTgEye0NVVkfDH4omFMgAATgFkEZrihi/0gsgzwY1duuWRoejjAvSlykIIIIAhVFJCXAN2XLRIo3WNASAABAAAkAACAABIAAEgAAQAAJAAAgAASAABIAAJhXg8iHAw6cQAAKIKcAOwAMEgAAQAAJAAAgAASCAKAL8OwME4BRAGi3TC/AV4gSmIQAEgAAQANlCAAABAAQAm0GAX64xPZEBAnAKII3WNDF+ogjwL8BDj7ACtAIeIAAEgAAQAAJAAAgAASBAa+uFp3cFYHw/BBgrJv4Dd/YI8jWh1/cXJEBYPAEu/a9wxgX6tuCTJ/jOGQKs8eCnQv23gGObW4CxVwtl/y2xvi38CddZQ4BV7oqVf9Oe7xUnwFc3qwAnRfuHEdcgQCGI9z+D7kOAQviRcAKchgCF8FQ4AZr2b2oB3i2QU+IJ8JDjtMUVoLNADgqX/0We04YAK7x4WDQBPoUABfGFaAI8hQAFcUaw/G91Q4DCGBNLgPFOCFAYb9wUKf+7nZtKgD+vEb6R4XxnEQY8Eef/hv6e85x7pNEKE+MniABPHhbDg89unf656dl7//oJ3jP+RFgBXtzM7H/I+0wIsMmBABAAAkAAEQXYD3iAABAAAkAAEQXoBjxAAAggqAA/ADxAAAgAASAABIAAEAACiCXAG4AHcQU4BniAABDgObMCCvAtwAMEgAAQAAJAAAhgcgH+skb4XgYIwIdHGq1ZYvwgAAQQQoCfAR4EFGAWAkAACAABvg/+z979x0R933Ecd6HBjBhi+UN+JcZktvFHPOvQ6lIszs2uZtNvXd0yFbXzIJfMrSVYu2ULbpkOOv5BaG0aCUHqhD+uYepSjlOoHbcDBLQShhPIWOWUcJPfBKIs68Z9v+D3C5/v3ffzPXrw+X4+r2fS/nG/cvd5P/h+v3fgfWkCAAAAAAAAAAAAAADgC8BvEE0AAADcAWgL1P9nRNMxebV4BLAD0dQJAAAAAAAAADMdOvK55Uu9CgDhASio4uPEUSmeDAB4y3xnOTpt0K3ddK8ZANRec/H0VbE3zwCAuc54+DprXC0AmCuLs6+Ld2wRCcDP1aYBZJutk7cTRtRSvWoFgGb9RAWwL4W78waKCuBfgUwD4O+sYWlUAOTVAoDs7JP8nTZut9AAzpjsBH8AtlK8bACYicNdwBkAMNFW7g4CPQBgKv7eBooKIDdQf4HZuPsgaBfNq+6UV6sXAAoKdns42wAUAIC5zvL1y6CrAGC2zTz9OnhfgeAAdofRllpO/iCkI4v2JQPAnM6+a/0+30X/egFA8AAAAAAAADgEMPQGogkAAIALAH9Xe9gSaOgqoqlVXq1ezfrxAmArogkAAAAAAAAAAAAAAIATAL0KgH2IJg8fAL7+MzUACAOAZv0AAAC4APAXRBO/ALYgmgAAAAAAAAAAAAAAAPgC8EtEEwAAAKcAfohoAgAA4A6AN9AjzJYOgLxaPALYhWgCAAAAAADgEcAhRJMCoAcAAIA3AN9BNAEAAAAAAAAAAHAH4DVEEwAAAACIXDu3AC6FU8Yjl3TA8jm8A0doXzG/AH5vvs23uPmeyPxaytcMAGpdHTx9VWwjAJjt1je46jYAmCuDs6+Lr+kCAFP18XbCiEqRALyv1tsUyDSAg/m8AeikAiCvVo9m/XgBcNZk/+HupFF2mpfNIYAeBcBBk93m77RxXRQvuw4ApqvkD8CVsAA8IyiAy9zNXzoIACb6hDsAXgAwlZc3AP0AYKauTzmbf8odADDVFRdfAOhWAADUsg7wNP/mVMEBdJnvtoOj+b9N95q5BdC3OYx28nICaUd/KuVLBoDZbatq5KDbqdQvGAAEDwAAAAAAAAAAAAAAgC8AVxBNvAD4QK2nOVDfi4imNnm1BjXrBwAAAAAAAAAAAAAAYGUAv0I0AQAAcAogFdEEAAAAAAAAAADAHYDvIpoAAAAAAAB4BHAE0QQAAMApgE8QTfwCeBnRxAuA99QGXYFuYrZU5cqrNahZPwAAAAAAAOsDeBvRpAB4wB+ATsxWcADbEE0AAAAAAAAAAAAAAAB8AXgX0cQvgJcQTQAAAACglt7YmRuBOh69CgBWANAYuW+K7MgCAOYBRPS8cfbLALCgAO6YrjHCp3F75w6D8Qtgp9lORvq7ovt2MhgAPO1RpL/At+wUAEQMQKZamADO2yP+Fc4D7ALQrJ/lATwID8ACnDTKwyCAFgCY7sYCfIc/ACwggPMmu7YAp3M+z178Akg32QJsAZrS2QsAZlqIYwAAYBhA+gK8CwCABQFQE8g8gIh/DnDgFIsA5NXiEEDrh2Y7kR/pTwI/ZDAAUIvw7wJcWQCwkADOmW8oor8NfOUciwGAtmuROxD0nDgHAAsJwJMRTkcbb3ZEIM+t4xmMBgCCxy+AdxBNAAAAU3VzCODXiCYvAAAAnwCOIpoAAAA4BZCFaAIAAOAUwI8QTQAAAAAAADwCOIVo4hfASUQTAAAApwB+gmgCAAAAAADgEED77xBNTXwAiC5R67YHaj+BaGqSV6tbs34AAABcANiPaAIAAAAAAOAQQN1PEU0AAACcAriMaGrmFsCPEU0AAAAAAAA8AngF0QQAAAAAAMAjgNcRTQAAAAAAANYHUK+mAOh4FdE0DUCzfgAAAAAAAJYH0PbvUFW6h/o66zpykZ0AEJ+YGJ30tbgVz8ZwCqByoNNrR7PSAsiU/18y9d+q6IRlUZYFcFy3ygFPDeZN5KjXK3PKQkliwnIrAChSq84JpAug6pErB+k0WV+k35SAkqJVCbFcAKjqq8Gog/R+Ueiil1kIwLpABIDKftc6FCypyKhVcVGWBnCjDVMOla/I0gQMAfTXYMYhyysxmv/UwcDKZRYCUKntGCZs1IP6IoqiY60IoKoO8zUuv4QCQEl8nPUAVOViulR7AR+NgKLoGIsBqGrBbKkJZFIYiH/WUgCqcPhvyoDU3d1dXe3zZQY/JiiJsxIAD4YaXpNStS8IgpKkKMsAeIRJzusDIp/+oSFrBwLR5WoVaYFyq+ScOWlofnX7ysnqE2MsAaC2GQOcf5IOgfqVMVYA0InpfSU5SAJFTAkIAsAd0rX/3vp7/hSqBchpEKj7vYPdDmK1MgkBiVHMA2gLNtBJ//C4TWliZKzMWMDR1WL1/P8qBwalWUtWQewFklgHMBBsgzb22KZtYrjCcBNwdrV4bapsKAu5EUhgHECu/jD94zaiUYeBANem1SK2/caDUEcCK5gG4NT/8R+16TXuMxDg2fCckK19fVBdhLm7gfhYlgF4dOc/YtNvwm8gwP2coK2tVLcCZbOPAjJZORDUAVB7w25m/hQCNn9T1LY/KdMXUF6UwC6AIb0hDtuCN2GwF2h+Ya2wpXcH2QYkL2cUQEttnc4Mx2yhGs8PLWBAXABrd9wPsg1YyQaAYrXqvEAtN+x5RBUTIQHYRvNCNnlpg7gdfiJNL0N18aziGAXg1JngcOj52yYqQgvwbBC562XTy+CbBSA+hk0AfeT8fDajDDYBeenfFrg97hkBmVoATBwH6gBoJ8c3aghgQgoNwHt4j8gVTguQyrUCkmOZBNBEju+xIQDbeoNNwKnnRW5Pw8zBlHYLUP4MWwAqHIFaahxz8xvP3zbsCF3TmsMit+bhzFpqNwFLYxgE4CWHN0YBYNwAgCNjjdBldyvLIM06DkxgEICLnN0wBQCbZACgXWwAazKU5XXMeicQH8UeAHIPEOJTYE0+AwCTl14QuyfTm4BZx4Er2ANgJ2f3AxoAfqN9wKeCA9hUrayD9jiwONoSAMa/EgCu7wtelURuApJjhNkFOBxfii5gUOcoIM4CB4ES1UFgmSGAxl8IXqVEvhGIZg5AEzm5UYr5Pzacv8O1XfSqyc8ClkaxBqAlZ+7g0u5RABgxBuDo+p7gFeocBi5jDoDOPmDCGMAYBYDjvxW8bD+5D0hgCEB+IG9uPhHFUWBFvnF/2CR6DcpCaPcBiewA8CkAOsnJGe8DRijmn1/zLdG7piyE9n1AchRrAIZ0Rmf4SYCfBkDavh2CV6CsU5l2H7CcNQDuPPObAL0NgJ28aP9boterLEQ5M58G6wC45tWZZuiPAiZ8Oj/ureRlVdmi919lIeqZOQrUA3BMB0BKyJ3Aep17eP9EXnatQPSc5EFAEmMAmtyFevtvX4i/ChrVu0NfKXmZ5w3R+8w3F0D54r4NiD6t5pMCNbndXkknf1ABo3o3T3O67cSFD7cK30V5ISo0y76KPQB9ehOVfPp7gYkx3Vu3ud3NxIU9W4TvPXkhUtRVL17KHgCnXXemZXpHguN+3dtK/W53G3Fhzi7h61GWUrPsF6OYA+A+pj9UyT/3I8HHo2X6t8ydepQ64lL7IeFrUFZCs+ynY9gC0Ox0OkvtUjACw+qhQOA7YoLd7sLUo7STAC4J3/SiFGvWPZY9AM69UvD8Y6PDIyPDo/dSgt+mLfAgreSR4Vnha7UGAGeTZJQjxHVphYHH8JDHAAeFj7UtQBIBwCUD+KNDmkfH5MfQ2QVsFr4GEkAMWwDs8vCcH81j/i3KQ5DvAiZfFD7yXcDpRX0XkEAAmFSm52wJe/72wmCP8OAz4fuAAJC8hBUAmcqUrpfKFdaEOX/HRuUBSl3EVYOpwkd+Ehi/qADiNM+kXpnSzPwu5IQHYO/0/Usniau+OCJ6X/rnAihe3K+KWaYBUP6x3JszA9yY93EYPb37BfK6oZdF766yED7Nsi/uH4bHao9GUuQn11Y6HwGtT+/9N/LK/m2i909lIeo1q77IXxKQrHkqFfKTqylVBawL++e/tPQf5LWFfxW9h8pClGtWfZH/bdBK7duA6Z9TdYgXakyN37FXvWupzl33vyR69+R1SNFudxf5VGJJF9X8B+RaC9Wuew/QV7NRc8+75PXSTtG7myIvhE+z6BcX+Z+Hxmmfi/L0mgu1vemgnX/ude392skb3E8XvS+UhfBr1nxx/x5kyZLlWgAVyvO7MEvA3Saq8dv3zrpX4f/bu4PXtq04DuAPZCwQIcg6WLENwdjHHHTQH9Db2Kk+7zRKVmdlI3/ADmMnQ2tmMOwSdKhlB4vSZMcpmb0VAtlg8cUUq7kkXat0nbprYbRQmBfJi5705NiOh5/8fp9rFHj+fX/6vScf5G74kr8+Y9xXbbcQmq/mC//xCDm8BwzwKOu3u9fGvzXo4P+jEC56/Cnj3umXdTD8N93C3xeaDO8Bm4Ew6/Xm+BbYOmoE/6MXvkr/mnUH4R2gtfB3BWKHANtd4XY95M/eg6j4ze1Qw9StUvi6p98wznLLq/orvvhXRgs533J+8fbzDkFj+5hwHjQHCuniCqFR9u8w7vyT8DMABa+LzRCOgf0OWa1fOdl026C0afYG+w3ydcoeYQd48xHbPnjFbfsLLi6+AbA9wNEvvbc6YzQsa+zfO50TPez5x2x7Y7t1sOnaAYZ7AI+NAHeVvc5NNAn56x++YNsLrw7+AUDHbwYkCCNAL98gf+s9If/z79lmOYQBkKPiV2RTLexBwNsEdu/PqkHaAPT+D2zz6qr6vwTSKPkJUewYqKnuSk2rMaNnpPyNJ2znf8+rA/YdQCtFRwOstEibQGXG/IkHAP3Xn5j2wjtbYV8CtjKIEustwjlQP5op/3KJOAAOn7DszCacAKkZAMMRUPXTiqprMEP+t0sqyfOfWfbW8crg+OtcoGYADE8BWAeMlqtOPwPKe8T8jcMfGXY2KqiNlbmQoqcBxAK5A3q71lT6OjF/9e0hw17Zo9sAK/KjLKJIAltbdbRk1VSmiF+pkONXLx6z6+GXxij/U6zG/CpNDSDIER1wqzxx/rVuRP7G/kNmvbs7qkIRz78qIarg50BfB6gVZXcSytFeRP7q73VmvfxvNy1qeIEziDKJyA641Z8g/3LU7a+q5/dZ9fru1RQM3P/yKm0NwOUDHeBcRdhtXhf/SWT8ww2gwabX39mR+VfTiDoiH+yAoq8FBkq0vqmOyf9sl0mf21fxB57/hhKIQungKjXDF+SD4yYp/Fqzt6WO80ph0N8Xp/4aOMHKZjgaGwCtBdfpOwj8q2Q+a9Z8H3N/+6lZUse7YC372rf3zk/xGagFy5oXEJ2yoQ5oG8FEt7onx73j38zu5nXZX374A3a87P1x0PYfndzTf+j2r8oipfkjLhlaLHYSAFOzT0MV5VOIWlymCi0wz/jb4XLmKM6fPAOGLWBAltMr2hqhljzV+Ud1QLVtwxiYMn2HWEiZ8vyJzwJeD8AcmJRhOy1yEfMiop+U24lQ1RzHtg1DNQCZbTtOuxVVv52MgOIgJe+A/0OCQ/EgJB+BuZPTKD4kfgPMV3IVxclqEiKbJ1lCcZPOQ2zzUkgIKH44SYbo5jP9RRRLHLcGLTCH+FMovjgJNoIb4bMiirlUFp4IZrUuCWgJcCtZ2AqmP/hl1kS0PFJSEppg8vDXE2kBLR1hRUok1/N8YWMjx4Og3LAscj6TXUuLHFpyS/8BoSoAAAAAAAAAAAAAAAAAAAAAgPn7B+y0/UTHODNTAAAAAElFTkSuQmCC;" vertex="1" parent="1">
          <mxGeometry x="283.5" y="163" width="24" height="24" as="geometry" />
        </mxCell>
        <mxCell id="pazgyhZPyo7JdbB8Kf8L-42" value="" style="shape=image;html=1;verticalLabelPosition=bottom;verticalAlign=top;imageAspect=1;aspect=fixed;image=data:image/png,iVBORw0KGgoAAAANSUhEUgAAAgAAAAIACAMAAADDpiTIAAAACXBIWXMAAA7EAAAOxAGVKw4bAAADAFBMVEVHcEyHc2yMdW2HcGiAaWGJcmqBaWB+ZVyDbmeFbmWFbmaMd26HcWmNd3CIcWmNeXGFbmaFbmZ/Zl6NeXKNeHCNd3CGb2d/Zl1+Zl6AZ15/ZV1/Zl6NenGOenN/Z16Ldm+AZ16NeHF+ZV2NbmPXwa7WwK3SvKqOenPRu6nVv6yRc2l+ZVzUvqzUvqtdQDehiH/QuqjLtaTVv62Ob2TAqZrFrp6/qJnGr5+7pJbKtKPMtqW6o5W+p5jNt6a8pZeRc2jJs6LTvau5opTDrJ29ppjErZ2ymo7Nt6WxmY3HsKCLdW7PuadtTEHTvaqfhXyPcWbDrJzFr5/ErZ6xmo2znI+1npGym47LtKO0nZCPcGXBqpvDrZ24oZPSvKm9ppe2n5HGsKCzm4+eg3qSdGm3oJKDa2OehHuQcmeMd3CJc2uGb2ewmIyHcGjOuKadgnnJsqK2npHNtqXIsqG0nI+8pZa1nZC3n5LErp6+p5nMtaS2n5LKs6PWwK6RdGm1npDMtqS0nJChh37Cq5x/Z1/IsaGghn2ZfHGQcmi7o5Wki4KQcWd/Zl2KdG2NeXKgh37HsaDCq5uljYOBaWGDbGSFbma3oJOEbWWIcmu4oJN+Zl25oZSAaF+Ldm+CamKHcWmmjoSjioGOcGWdg3p/Z16iiYDCrJyBaWCMbmOLd29+ZV3PuKenj4SPcGafhn2vl4vKs6Kzm46/qJrGsJ/Frp/Quqm9pZetlYqUd22KcGeokIWpkYakjIKTdWuslImqkoerk4i+qJm6pJWafnWcgHafhHuXenCCamGYgHSqj4Kgg3aWeW+VeG6Xe3GkiXuzmYq9pZW6opWcgXjPuaiZfXOHb2ibgHaiioCZfXSBZl2bf3KegnfBqprOt6aYf3aMcWeXfHOVe3OUenGPdWuJbGONcmmSeG+Rdm2WfnWghXqGamCwmY2ih3yli4CnjYGOdGqkiX5zVUtvUUd3WlB9YFaZgXloS0JgQzqRe3NjRj2bhHuQc2i6oZHBqJeeiX25o5S7qJcKyWD+AAAAI3RSTlMAldMGlbOz8ZWzErVJgR75Kjpo4GvFVel/wKD3nPDO7tup++U99LUAAB13SURBVHja7J1fTFvXHccd0KQJMA7CjvYAQoilTsZiWLI/2p8qi7Q2DQUvb9Mm5cUPjqcJGpZtUqRmVaUQpelg2dOqCG3MmhbUiKaaJkLS/JEyKpFkCfMqFKeJAccQF7Vp/Q8MTR4W38uf43vOtY8N9/rew/fziG2u7/l+7u/8zrnGWCwAAAAAAAAAAAAAAAAAAAAAAAAAAACsUl1l31LpqK2vtzlBsdjqa8scjVZ7Tbmpsi+vslbWO53ptDONDNdJenkIa+vs1eZIv8LeWI/cNKF2S43hr/1tlaj4mjpg3Wrki99aj6Kv8YzgdDq2GbXrq8PFr1MZsJcj/k2ugNGqQLkVjZ++OAzVD1bVIhHde4G6CsNc/nUIpCTzQJUx8q/B5V8ieuuM0Aza0fyVjrKS7wqUN6q/u2goteQd6utrAUXS19c3tLSUiqpvrtSXeBqocKiFnxpCfhtowlJKRQKbvaSLf/b0H13CVb/xDKk4YC1d/ltZ+adTSF8rvFGWAXUly5+x+ZPGxa9tGQgZx4Dq2l4lzlTfm0BbhqLUsPduKUn/R+cf6lG8WX94ZC7Y3NwcjMxMu/Of29WfgCx+c+qdo8PnlcPkTSuvu1L0AeUOZfxpL/kue8LB2KKLZD4RuZFbgJYTXwc0O4999+WBrLFNUdee/jeHGpVvIUpe/rPJ7PBXJXg7lMuAgU7EzWb7a0feylEEnDa97w3Zlfmn+lbxzs271InNDPWpcmkXslYtBAevrQ0U1QnU6ntrqMamMHBpLf7gois38zkUeBlB5+DAdVUDnJWlbACd3tX3NTLvyk88rGrAGcScg9df+tPqSCkaAaeeW4J1ivbPvfKmQjEXH0mvigB/fxUx52LX79QMsOl3Y6hK4d5q/iOLLl7m1YrA8HaknJMTH6gY4NBtBVjLrv/upKsAFiIqBjxAxrnZMbxacEszCVizxVvp//xxV2Ek2b3gQAcyzs3uoytjld0J1uuzEqi2Mdd/qXlXoSTYBhxBxPl2Bc6u9NzZ+wF1JegAo8Xnr2ZAC7aD8vLDlWnXqXsfuDWrAKSXI+wqJn81A7AZkJ+VxcBS1uXYqPse8HID4I67iqOZOQl0I+C8s8ArzDZgq84dQLRHoi/hKpaRHgbvI+D8GwKX5bHKngTq9F0CON3ym4gUnb9rYYohQF8rAs5LZ4s8WFm7ATatv0SgvCFrBSC/hXsLxQvgirsZBvwX+ebnF8slgFgJ+Hq1/mTAtuwtYPkdxF3rIcgQYGA38s1/Y+A9ebDIPtBXq7EADkYByDcB5KkPCyGGAd95HeTl3TflwUoTFaBX2z8UqMgcQtEB+NVuAMwngiOzE13Pn+UNzY68nVBbKSYYAryCeDk4S3UBPo0/H2hnFIAg87JORCaoVEORGLMahGkBWvZtB3l5YYDqAnobNP17wUpSAPUCEI94e9j4I4yGIcZ44kuIl4NTy1cWGYuWHw4rt9F7AHN0SZ/uycUs/ZkBxlLwKNLl4JC8FHSTAmi5DqgiWwB5BnArZ/ZY7vgzhJUKJOnnfLAb8XLwW2Ub2NtbptcukDwDPFJ+3q+Hh8nseWORMWN0I10OLtCbQTYNbwo7fGtEhySyN4ET/iE+urJfN0I/49tIl4fz0mC5iWB8Gi4EbcRhUvKRyUt5cWSIm77IQtZdQQo0AVyclUcrTSSjXROwlfRsSTrwY7L8Tw0VQpjoHhbd1MOXES4Pr8mjFSWS0e4D4tuIo/TKB24m1n6pocIIEQbMUo+27ES6HOxskUYrtRaMhrvBVkKAtFtirZ+Pd7kLJbC2J/AP+tFOpMvDsDRYfiIam2ZbQXVkDyintLiO/N3u1KoBCfrBAwiXh3ekwfL2EtlU67EICEnHDa3O/wFmwv6LkWAymQxGbnuZj0+szALz9GNYBnBxRh4tpx7LgDJyESAddmUXYHGKka73y2T7KvHkY5YD08trgQX6oVMIl4cfy6NFLAO0+1vxBkIA+YpfuRP8OZ3f6GSsPZsY41nuyeXfMEE9cgTh8tC6fCUR2dj12AbwS4ddvhOYpIO9l2inSdIxe5f/nChMPfI+wuVaBsijFdVjI4DcBpDruZzevJ9K73i8nUX8Nt0myG3AI+qBX+0GPLRQAnxNq3uBagI8psI7164GHfQjlUnkPWTLxYDcjq9FM7hFZwHoJdxMuzq0LdJtgRnqx8PIlovPlAL4dBZg4YYyunCO/Nvj1NOlDxVDAOMLwOgBmlkdoD+WS4D2BLUcTEIAcwhArwLmMh/qVa7/5tpzc44qARDAHALUUvsAM4wO4Eae/NvjfkYXwBBgJ+BBRwHoncApxhIgmE8AugQ8ggCmEKCSuhk0ukBt4nvjeQWgisboPAQwgwBbyNvBoxLx5lEFV9rz85HyRUnXpPJHoxCAUwBptHQRwE4LkJxV5hbkEOCc8kWPIYAZBKgi14Ee6bhhjyK2TxIcAiSVYXsWIYAJBKgmBQiMsolxCJCgXwUBTCCApWFwjaiXDUf+7THqVc2T1I+uIlsu3pJGK0REo50AlcRRnOz8u3gEiFMvm4QAZhDAShxl0M8UwF+cAP+BAGYQoGYw/xxQ3BTgn4EAJhAgqwlIswXgaQKT9MtmIYAZBGgkS0CAKUCSQ4Ag/bIQLcA3AQ8DegqwjRRgmilAhEOAz+mXBSCAGQQotxHH8THbwCkOARi1g/5d15Gt8QTIngPYbWCimBaAwSVka0ABqgbzloDJvAJchACmFcBSm7cE+POtAxJeCGBeAez9BIMBD4PjeQQIe7iAAJwCSKMVJWLRVICKBtKANCu50dwrwTkPBDCxABYrKUB/lBVdINckkOiCAGYWoDy7BPQzJ4GP1A2ITXDm7xnbBXjQuwIoSkAv84K+p2ZAgjt/CGBUARQlgNkGeCbYfUAy4IEAZhcgeyGg0gZ4us7Rnw6OfcPjgQDmF8DiyDYgxA5wYi5bgVgk4IEAQgiw1cZlgKfry+RKLxALXunyeCCAGAIo+kB1AzJLwvDj4xc/LDT84gU4ND52RwCuHjS0AMpJIJcBRVOUAOMXmwTh418bWYDqBoUBUf+Gc35f4dxtEofDD/jOeUAaLZ0FsFQpBOhPdxlAgKdNIrH3goEFoNqAfl+q5AJ07xVKgKabRhbA0qg0oD/aVWIBrjYJxhkjC1DuaFPiC3VtIIULcFs0AcZ4zvoLabSiRA76CGCpoA1oS0+UUIALouXfdNLQAlgqytq0VKBgAZ4JJ8DfOgwtALMGPFcgWiIBxoUToGmHsQWwVFSyDGjzhUMBVIANYI/BK8DzTrCujU1/OjqBHmC9fLjP6AJYLNY2dXyz6eloNMTHRGC9AnRcFE2AMRMIYKlpaNsgfNOB9S0Dr4smwAMzCKDWCBRFmlDgfEehdB8WK/+Puc665AJYLPYNKwJtvol1CNAh1r2Aw380iwCW6koNDChCgI5hgfI//azDNAJYLFVlG2ZAYB0CdDy9Ikr+9//ZYSYBLOX22o3qA9YjQEfr0yc3zc+dsWeHOswlQEaBDaoCgfUIsPkwjACZLxCp3MAS8NcXAA9GEuB5O2hdfxnwQQDzCpD50LjVsU4D5IXAE2RrTgEye0NVVkfDH4omFMgAATgFkEZrihi/0gsgzwY1duuWRoejjAvSlykIIIIAhVFJCXAN2XLRIo3WNASAABAAAkAACAABIAAEgAAQAAJAAAgAASAABIAAJhXg8iHAw6cQAAKIKcAOwAMEgAAQAAJAAAgAASCAKAL8OwME4BRAGi3TC/AV4gSmIQAEgAAQANlCAAABAAQAm0GAX64xPZEBAnAKII3WNDF+ogjwL8BDj7ACtAIeIAAEgAAQAAJAAAgAASBAa+uFp3cFYHw/BBgrJv4Dd/YI8jWh1/cXJEBYPAEu/a9wxgX6tuCTJ/jOGQKs8eCnQv23gGObW4CxVwtl/y2xvi38CddZQ4BV7oqVf9Oe7xUnwFc3qwAnRfuHEdcgQCGI9z+D7kOAQviRcAKchgCF8FQ4AZr2b2oB3i2QU+IJ8JDjtMUVoLNADgqX/0We04YAK7x4WDQBPoUABfGFaAI8hQAFcUaw/G91Q4DCGBNLgPFOCFAYb9wUKf+7nZtKgD+vEb6R4XxnEQY8Eef/hv6e85x7pNEKE+MniABPHhbDg89unf656dl7//oJ3jP+RFgBXtzM7H/I+0wIsMmBABAAAkAAEQXYD3iAABAAAkAAEQXoBjxAAAggqAA/ADxAAAgAASAABIAAEAACiCXAG4AHcQU4BniAABDgObMCCvAtwAMEgAAQAAJAAAhgcgH+skb4XgYIwIdHGq1ZYvwgAAQQQoCfAR4EFGAWAkAACAABvg/+z979x0R933Ecd6HBjBhi+UN+JcZktvFHPOvQ6lIszs2uZtNvXd0yFbXzIJfMrSVYu2ULbpkOOv5BaG0aCUHqhD+uYepSjlOoHbcDBLQShhPIWOWUcJPfBKIs68Z9v+D3C5/v3ffzPXrw+X4+r2fS/nG/cvd5P/h+v3fgfWkCAAAAAAAAAAAAAADgC8BvEE0AAADcAWgL1P9nRNMxebV4BLAD0dQJAAAAAAAAADMdOvK55Uu9CgDhASio4uPEUSmeDAB4y3xnOTpt0K3ddK8ZANRec/H0VbE3zwCAuc54+DprXC0AmCuLs6+Ld2wRCcDP1aYBZJutk7cTRtRSvWoFgGb9RAWwL4W78waKCuBfgUwD4O+sYWlUAOTVAoDs7JP8nTZut9AAzpjsBH8AtlK8bACYicNdwBkAMNFW7g4CPQBgKv7eBooKIDdQf4HZuPsgaBfNq+6UV6sXAAoKdns42wAUAIC5zvL1y6CrAGC2zTz9OnhfgeAAdofRllpO/iCkI4v2JQPAnM6+a/0+30X/egFA8AAAAAAAADgEMPQGogkAAIALAH9Xe9gSaOgqoqlVXq1ezfrxAmArogkAAAAAAAAAAAAAAIATAL0KgH2IJg8fAL7+MzUACAOAZv0AAAC4APAXRBO/ALYgmgAAAAAAAAAAAAAAAPgC8EtEEwAAAKcAfohoAgAA4A6AN9AjzJYOgLxaPALYhWgCAAAAAADgEcAhRJMCoAcAAIA3AN9BNAEAAAAAAAAAAHAH4DVEEwAAAACIXDu3AC6FU8Yjl3TA8jm8A0doXzG/AH5vvs23uPmeyPxaytcMAGpdHTx9VWwjAJjt1je46jYAmCuDs6+Lr+kCAFP18XbCiEqRALyv1tsUyDSAg/m8AeikAiCvVo9m/XgBcNZk/+HupFF2mpfNIYAeBcBBk93m77RxXRQvuw4ApqvkD8CVsAA8IyiAy9zNXzoIACb6hDsAXgAwlZc3AP0AYKauTzmbf8odADDVFRdfAOhWAADUsg7wNP/mVMEBdJnvtoOj+b9N95q5BdC3OYx28nICaUd/KuVLBoDZbatq5KDbqdQvGAAEDwAAAAAAAAAAAAAAgC8AVxBNvAD4QK2nOVDfi4imNnm1BjXrBwAAAAAAAAAAAAAAYGUAv0I0AQAAcAogFdEEAAAAAAAAAADAHYDvIpoAAAAAAAB4BHAE0QQAAMApgE8QTfwCeBnRxAuA99QGXYFuYrZU5cqrNahZPwAAAAAAAOsDeBvRpAB4wB+ATsxWcADbEE0AAAAAAAAAAAAAAAB8AXgX0cQvgJcQTQAAAACglt7YmRuBOh69CgBWANAYuW+K7MgCAOYBRPS8cfbLALCgAO6YrjHCp3F75w6D8Qtgp9lORvq7ovt2MhgAPO1RpL/At+wUAEQMQKZamADO2yP+Fc4D7ALQrJ/lATwID8ACnDTKwyCAFgCY7sYCfIc/ACwggPMmu7YAp3M+z178Akg32QJsAZrS2QsAZlqIYwAAYBhA+gK8CwCABQFQE8g8gIh/DnDgFIsA5NXiEEDrh2Y7kR/pTwI/ZDAAUIvw7wJcWQCwkADOmW8oor8NfOUciwGAtmuROxD0nDgHAAsJwJMRTkcbb3ZEIM+t4xmMBgCCxy+AdxBNAAAAU3VzCODXiCYvAAAAnwCOIpoAAAA4BZCFaAIAAOAUwI8QTQAAAAAAADwCOIVo4hfASUQTAAAApwB+gmgCAAAAAADgEED77xBNTXwAiC5R67YHaj+BaGqSV6tbs34AAABcANiPaAIAAAAAAOAQQN1PEU0AAACcAriMaGrmFsCPEU0AAAAAAAA8AngF0QQAAAAAAMAjgNcRTQAAAAAAANYHUK+mAOh4FdE0DUCzfgAAAAAAAJYH0PbvUFW6h/o66zpykZ0AEJ+YGJ30tbgVz8ZwCqByoNNrR7PSAsiU/18y9d+q6IRlUZYFcFy3ygFPDeZN5KjXK3PKQkliwnIrAChSq84JpAug6pErB+k0WV+k35SAkqJVCbFcAKjqq8Gog/R+Ueiil1kIwLpABIDKftc6FCypyKhVcVGWBnCjDVMOla/I0gQMAfTXYMYhyysxmv/UwcDKZRYCUKntGCZs1IP6IoqiY60IoKoO8zUuv4QCQEl8nPUAVOViulR7AR+NgKLoGIsBqGrBbKkJZFIYiH/WUgCqcPhvyoDU3d1dXe3zZQY/JiiJsxIAD4YaXpNStS8IgpKkKMsAeIRJzusDIp/+oSFrBwLR5WoVaYFyq+ScOWlofnX7ysnqE2MsAaC2GQOcf5IOgfqVMVYA0InpfSU5SAJFTAkIAsAd0rX/3vp7/hSqBchpEKj7vYPdDmK1MgkBiVHMA2gLNtBJ//C4TWliZKzMWMDR1WL1/P8qBwalWUtWQewFklgHMBBsgzb22KZtYrjCcBNwdrV4bapsKAu5EUhgHECu/jD94zaiUYeBANem1SK2/caDUEcCK5gG4NT/8R+16TXuMxDg2fCckK19fVBdhLm7gfhYlgF4dOc/YtNvwm8gwP2coK2tVLcCZbOPAjJZORDUAVB7w25m/hQCNn9T1LY/KdMXUF6UwC6AIb0hDtuCN2GwF2h+Ya2wpXcH2QYkL2cUQEttnc4Mx2yhGs8PLWBAXABrd9wPsg1YyQaAYrXqvEAtN+x5RBUTIQHYRvNCNnlpg7gdfiJNL0N18aziGAXg1JngcOj52yYqQgvwbBC562XTy+CbBSA+hk0AfeT8fDajDDYBeenfFrg97hkBmVoATBwH6gBoJ8c3aghgQgoNwHt4j8gVTguQyrUCkmOZBNBEju+xIQDbeoNNwKnnRW5Pw8zBlHYLUP4MWwAqHIFaahxz8xvP3zbsCF3TmsMit+bhzFpqNwFLYxgE4CWHN0YBYNwAgCNjjdBldyvLIM06DkxgEICLnN0wBQCbZACgXWwAazKU5XXMeicQH8UeAHIPEOJTYE0+AwCTl14QuyfTm4BZx4Er2ANgJ2f3AxoAfqN9wKeCA9hUrayD9jiwONoSAMa/EgCu7wtelURuApJjhNkFOBxfii5gUOcoIM4CB4ES1UFgmSGAxl8IXqVEvhGIZg5AEzm5UYr5Pzacv8O1XfSqyc8ClkaxBqAlZ+7g0u5RABgxBuDo+p7gFeocBi5jDoDOPmDCGMAYBYDjvxW8bD+5D0hgCEB+IG9uPhHFUWBFvnF/2CR6DcpCaPcBiewA8CkAOsnJGe8DRijmn1/zLdG7piyE9n1AchRrAIZ0Rmf4SYCfBkDavh2CV6CsU5l2H7CcNQDuPPObAL0NgJ28aP9boterLEQ5M58G6wC45tWZZuiPAiZ8Oj/ureRlVdmi919lIeqZOQrUA3BMB0BKyJ3Aep17eP9EXnatQPSc5EFAEmMAmtyFevtvX4i/ChrVu0NfKXmZ5w3R+8w3F0D54r4NiD6t5pMCNbndXkknf1ABo3o3T3O67cSFD7cK30V5ISo0y76KPQB9ehOVfPp7gYkx3Vu3ud3NxIU9W4TvPXkhUtRVL17KHgCnXXemZXpHguN+3dtK/W53G3Fhzi7h61GWUrPsF6OYA+A+pj9UyT/3I8HHo2X6t8ydepQ64lL7IeFrUFZCs+ynY9gC0Ox0OkvtUjACw+qhQOA7YoLd7sLUo7STAC4J3/SiFGvWPZY9AM69UvD8Y6PDIyPDo/dSgt+mLfAgreSR4Vnha7UGAGeTZJQjxHVphYHH8JDHAAeFj7UtQBIBwCUD+KNDmkfH5MfQ2QVsFr4GEkAMWwDs8vCcH81j/i3KQ5DvAiZfFD7yXcDpRX0XkEAAmFSm52wJe/72wmCP8OAz4fuAAJC8hBUAmcqUrpfKFdaEOX/HRuUBSl3EVYOpwkd+Ehi/qADiNM+kXpnSzPwu5IQHYO/0/Usniau+OCJ6X/rnAihe3K+KWaYBUP6x3JszA9yY93EYPb37BfK6oZdF766yED7Nsi/uH4bHao9GUuQn11Y6HwGtT+/9N/LK/m2i909lIeo1q77IXxKQrHkqFfKTqylVBawL++e/tPQf5LWFfxW9h8pClGtWfZH/bdBK7duA6Z9TdYgXakyN37FXvWupzl33vyR69+R1SNFudxf5VGJJF9X8B+RaC9Wuew/QV7NRc8+75PXSTtG7myIvhE+z6BcX+Z+Hxmmfi/L0mgu1vemgnX/ude392skb3E8XvS+UhfBr1nxx/x5kyZLlWgAVyvO7MEvA3Saq8dv3zrpX4f/bu4PXtq04DuAPZCwQIcg6WLENwdjHHHTQH9Db2Kk+7zRKVmdlI3/ADmMnQ2tmMOwSdKhlB4vSZMcpmb0VAtlg8cUUq7kkXat0nbprYbRQmBfJi5705NiOh5/8fp9rFHj+fX/6vScf5G74kr8+Y9xXbbcQmq/mC//xCDm8BwzwKOu3u9fGvzXo4P+jEC56/Cnj3umXdTD8N93C3xeaDO8Bm4Ew6/Xm+BbYOmoE/6MXvkr/mnUH4R2gtfB3BWKHANtd4XY95M/eg6j4ze1Qw9StUvi6p98wznLLq/orvvhXRgs533J+8fbzDkFj+5hwHjQHCuniCqFR9u8w7vyT8DMABa+LzRCOgf0OWa1fOdl026C0afYG+w3ydcoeYQd48xHbPnjFbfsLLi6+AbA9wNEvvbc6YzQsa+zfO50TPez5x2x7Y7t1sOnaAYZ7AI+NAHeVvc5NNAn56x++YNsLrw7+AUDHbwYkCCNAL98gf+s9If/z79lmOYQBkKPiV2RTLexBwNsEdu/PqkHaAPT+D2zz6qr6vwTSKPkJUewYqKnuSk2rMaNnpPyNJ2znf8+rA/YdQCtFRwOstEibQGXG/IkHAP3Xn5j2wjtbYV8CtjKIEustwjlQP5op/3KJOAAOn7DszCacAKkZAMMRUPXTiqprMEP+t0sqyfOfWfbW8crg+OtcoGYADE8BWAeMlqtOPwPKe8T8jcMfGXY2KqiNlbmQoqcBxAK5A3q71lT6OjF/9e0hw17Zo9sAK/KjLKJIAltbdbRk1VSmiF+pkONXLx6z6+GXxij/U6zG/CpNDSDIER1wqzxx/rVuRP7G/kNmvbs7qkIRz78qIarg50BfB6gVZXcSytFeRP7q73VmvfxvNy1qeIEziDKJyA641Z8g/3LU7a+q5/dZ9fru1RQM3P/yKm0NwOUDHeBcRdhtXhf/SWT8ww2gwabX39mR+VfTiDoiH+yAoq8FBkq0vqmOyf9sl0mf21fxB57/hhKIQungKjXDF+SD4yYp/Fqzt6WO80ph0N8Xp/4aOMHKZjgaGwCtBdfpOwj8q2Q+a9Z8H3N/+6lZUse7YC372rf3zk/xGagFy5oXEJ2yoQ5oG8FEt7onx73j38zu5nXZX374A3a87P1x0PYfndzTf+j2r8oipfkjLhlaLHYSAFOzT0MV5VOIWlymCi0wz/jb4XLmKM6fPAOGLWBAltMr2hqhljzV+Ud1QLVtwxiYMn2HWEiZ8vyJzwJeD8AcmJRhOy1yEfMiop+U24lQ1RzHtg1DNQCZbTtOuxVVv52MgOIgJe+A/0OCQ/EgJB+BuZPTKD4kfgPMV3IVxclqEiKbJ1lCcZPOQ2zzUkgIKH44SYbo5jP9RRRLHLcGLTCH+FMovjgJNoIb4bMiirlUFp4IZrUuCWgJcCtZ2AqmP/hl1kS0PFJSEppg8vDXE2kBLR1hRUok1/N8YWMjx4Og3LAscj6TXUuLHFpyS/8BoSoAAAAAAAAAAAAAAAAAAAAAgPn7B+y0/UTHODNTAAAAAElFTkSuQmCC;" vertex="1" parent="1">
          <mxGeometry x="282.5" y="243" width="24" height="24" as="geometry" />
        </mxCell>
      </root>
    </mxGraphModel>
  </diagram>
</mxfile>
